<?xml version="1.0" standalone="no"?>
<!DOCTYPE svg PUBLIC "-//W3C//DTD SVG 20010904//EN"
 "http://www.w3.org/TR/2001/REC-SVG-20010904/DTD/svg10.dtd">
<svg version="1.0" xmlns="http://www.w3.org/2000/svg"
 width="736.000000pt" height="1315.000000pt" viewBox="0 0 736.000000 1315.000000"
 preserveAspectRatio="xMidYMid meet">

<g transform="translate(0.000000,1315.000000) scale(0.100000,-0.100000)"
fill="#000000" stroke="none">
<path d="M0 10030 l0 -3120 75 0 c43 0 75 -4 75 -10 0 -6 -32 -10 -75 -10
l-75 0 0 -679 0 -679 205 2 c113 0 205 -2 205 -6 0 -5 -92 -8 -205 -8 -113 0
-205 -4 -205 -9 0 -15 28 -17 218 -15 100 1 182 -3 182 -7 0 -5 -90 -9 -200
-9 -127 0 -200 -4 -200 -10 0 -11 6 -11 252 -13 154 -2 168 -1 168 16 0 22 0
22 10 57 l9 30 -60 1 c-80 2 -82 2 -87 17 -3 9 24 12 114 12 64 0 114 3 110 7
-3 4 -27 6 -51 4 -34 -1 -45 2 -45 13 0 8 8 17 17 20 15 4 15 5 -2 4 -51 -1
-75 3 -75 13 0 6 15 10 33 9 69 -4 127 0 127 10 0 5 -26 7 -60 5 -33 -2 -62 1
-65 6 -6 8 53 14 97 10 10 -1 26 2 35 8 17 10 17 10 -2 12 -11 1 -30 0 -42 -1
-26 -2 -31 15 -8 24 8 3 15 1 15 -3 0 -10 19 -9 37 2 16 10 45 -46 36 -70 -6
-15 -4 -16 9 -5 13 10 18 8 31 -12 14 -20 17 -58 17 -206 1 -171 -4 -222 -16
-173 -5 20 -13 21 -97 22 -92 1 -108 4 -91 21 5 5 7 36 6 69 l-4 61 -209 0
-209 0 1 -377 c1 -208 3 -367 6 -353 9 56 14 70 28 70 18 0 20 -46 2 -53 -9
-4 -9 -8 2 -15 12 -9 12 -13 2 -26 -11 -13 -11 -16 0 -16 11 0 11 -2 -1 -10
-13 -9 -13 -11 0 -20 12 -8 12 -10 -5 -10 -18 -1 -17 -2 5 -15 14 -8 22 -15
18 -16 -5 -1 -12 -3 -18 -4 -5 -1 -13 -3 -17 -4 -5 -1 -1 -6 7 -11 12 -8 11
-13 -8 -33 -19 -20 -22 -34 -22 -103 1 -75 1 -78 16 -52 15 29 103 148 138
187 98 109 151 159 165 154 12 -4 13 -3 3 4 -10 8 -10 12 3 23 13 11 15 6 15
-41 0 -34 4 -48 9 -39 4 8 7 33 6 55 -1 41 9 75 24 75 5 0 10 -61 10 -136 2
-132 9 -235 17 -243 2 -2 4 22 5 55 0 42 3 53 9 39 8 -18 9 -18 9 -2 1 10 5
16 10 13 5 -3 12 1 15 10 8 22 8 26 -3 19 -5 -3 -13 0 -16 6 -4 6 2 13 13 16
11 3 18 11 16 18 -3 7 3 15 13 19 15 6 15 9 3 17 -12 8 -12 12 -2 16 10 4 10
8 0 20 -11 14 -10 15 10 9 18 -6 22 -4 22 14 0 19 -4 22 -35 18 -24 -3 -35 0
-35 9 0 7 -6 13 -12 13 -9 0 -8 4 2 10 11 7 18 5 26 -5 14 -18 54 -20 54 -2 0
6 3 50 6 97 l5 85 47 42 c26 23 48 40 51 38 2 -3 4 -114 3 -247 0 -236 0 -244
-24 -298 -15 -34 -37 -63 -54 -74 -16 -10 -99 -90 -184 -177 -107 -110 -163
-160 -180 -162 -14 -1 -46 -15 -71 -30 -35 -21 -53 -26 -77 -21 l-32 7 0
-2002 0 -2001 3680 0 3680 0 0 2280 0 2280 -102 -1 c-57 0 -156 -4 -221 -7
-117 -7 -118 -7 -112 15 3 12 0 23 -8 26 -9 4 -9 6 1 6 8 1 12 17 12 46 l0 45
38 2 c82 4 205 -14 229 -34 7 -6 13 -6 13 -1 0 5 17 10 38 11 32 2 74 6 105
11 5 0 7 138 5 305 -2 246 -5 301 -15 283 -14 -26 -17 -18 -4 15 8 21 6 23
-19 23 -16 0 -26 -3 -23 -7 2 -5 11 -8 19 -8 8 0 12 -4 9 -10 -10 -16 -12
-100 -3 -100 5 0 4 -8 -1 -18 -6 -11 -6 -24 1 -36 8 -14 7 -17 -1 -12 -8 5 -9
-18 -6 -81 2 -48 5 -88 6 -88 0 0 3 -48 6 -107 l5 -108 -201 0 c-233 0 -209
-16 -214 139 l-2 94 -169 -2 -169 -2 7 96 c11 150 -8 184 -100 173 l-35 -4 3
395 3 396 28 3 27 3 1 132 c2 215 2 212 30 212 14 0 23 -5 21 -12 -1 -7 4 -13
10 -13 9 0 8 -4 -2 -10 -12 -8 -9 -10 13 -10 24 0 32 9 28 33 0 4 8 7 20 7 19
0 20 -1 3 -17 -17 -17 -17 -18 4 -21 26 -4 30 -19 5 -19 -71 0 -83 -3 -83 -23
0 -17 7 -20 40 -20 22 0 40 -4 40 -10 0 -5 -18 -10 -40 -10 -29 0 -40 -4 -40
-15 0 -16 25 -16 49 -1 11 7 12 6 6 -5 -8 -12 -6 -12 8 0 11 9 17 10 17 2 0
-6 9 -11 20 -11 14 0 20 -7 20 -22 1 -19 2 -20 10 -8 9 17 20 187 12 195 -9 9
-9 63 -1 76 7 12 9 11 10 -1 0 -10 3 -8 9 5 7 17 9 17 9 3 1 -10 6 -18 12 -18
6 0 8 9 4 21 -5 15 -4 19 5 14 8 -5 11 0 9 16 -2 13 0 30 5 37 4 7 5 16 2 19
-10 10 -19 -4 -18 -31 0 -16 -9 -28 -24 -35 -15 -6 -24 -7 -24 -1 0 6 4 10 8
10 15 0 34 52 22 60 -20 12 1 39 33 43 30 4 30 4 -5 5 -21 1 -38 7 -38 12 0 9
36 13 95 12 17 -1 17 0 3 4 -10 3 -18 10 -18 15 0 5 -3 8 -7 8 -29 -5 -83 3
-83 11 0 6 7 10 15 10 8 0 15 5 15 11 0 8 4 8 14 0 20 -17 25 2 26 121 0 57 3
133 5 170 3 43 1 69 -6 74 -8 5 -8 8 0 14 9 5 8 10 -4 20 -10 8 -15 9 -15 1 0
-6 -4 -11 -10 -11 -5 0 -10 14 -10 31 0 27 2 30 15 19 13 -11 15 -7 17 26 1
22 2 49 3 61 0 11 6 27 12 35 10 11 27 125 24 153 -2 13 51 21 119 17 l55 -4
1 -41 c2 -60 13 -121 24 -125 5 -2 6 -10 3 -18 -5 -12 7 -19 30 -15 14 2 7
-30 -9 -36 -10 -4 -14 -13 -10 -26 3 -11 -3 -33 -12 -49 -11 -18 -13 -31 -7
-36 6 -4 10 -38 10 -77 1 -66 13 -222 20 -262 2 -10 4 -26 4 -37 1 -13 6 -17
21 -13 10 3 24 -1 31 -9 9 -12 5 -14 -25 -14 -21 0 -35 -4 -31 -9 3 -6 -16
-12 -42 -14 -37 -3 -31 -4 25 -5 83 -2 99 -21 20 -23 -93 -2 -101 -4 -104 -17
-1 -7 0 -8 3 -2 2 5 9 10 14 10 6 0 7 -4 4 -10 -3 -6 3 -10 14 -10 12 0 21 5
21 10 0 6 9 10 21 10 11 0 18 -4 14 -9 -3 -5 4 -11 15 -13 12 -2 19 -7 18 -13
-2 -5 -6 -9 -10 -7 -5 1 -8 -9 -8 -23 0 -17 7 -28 22 -34 20 -7 21 -14 20 -88
-1 -72 2 -82 18 -86 13 -3 21 1 25 12 3 10 12 18 20 18 18 0 20 -13 3 -21 -10
-5 -10 -7 -1 -12 20 -9 15 -21 -9 -28 -22 -6 -22 -7 -5 -20 12 -9 14 -16 8
-21 -19 -11 -12 -45 11 -54 l22 -8 -23 -13 c-31 -16 -12 -28 35 -23 19 2 34
-1 34 -7 0 -11 -1 -11 -47 -14 -18 -1 -36 -5 -40 -9 -12 -13 12 -42 38 -45 13
-2 31 -5 39 -8 13 -4 13 -6 0 -14 -21 -14 -57 -12 -63 3 -3 6 -6 2 -6 -11 -1
-19 3 -22 18 -17 24 7 71 -4 71 -17 0 -5 -6 -8 -12 -7 -7 1 -22 0 -33 -1 -16
-1 -15 -4 8 -12 18 -6 26 -15 23 -24 -3 -8 1 -14 9 -14 8 0 15 -7 15 -15 0 -8
-7 -15 -15 -15 -20 0 -19 -29 1 -37 9 -3 20 -15 24 -27 7 -17 9 -18 9 -3 1 18
41 25 41 7 0 -5 -7 -10 -17 -10 -9 0 -13 -3 -9 -7 10 -10 76 -12 82 -2 3 5 -4
9 -16 9 -13 0 -20 5 -17 13 2 6 11 11 20 9 11 -2 15 6 14 33 -1 33 -3 35 -34
35 -18 0 -33 5 -33 11 0 7 14 10 35 7 l35 -4 0 97 c0 69 -4 99 -12 102 -10 4
-10 6 -1 6 9 1 12 72 13 281 l0 280 -75 0 c-72 0 -75 1 -75 24 0 30 16 36 91
36 l59 0 0 3185 0 3185 -3680 0 -3680 0 0 -3120z m6900 -1305 c0 -19 -20 -29
-32 -17 -15 15 -2 43 17 36 8 -3 15 -12 15 -19z m14 -311 c7 -19 8 -79 1 -86
-3 -3 -17 -3 -30 0 -22 4 -25 10 -25 46 0 24 3 46 7 49 12 13 41 7 47 -9z m9
-133 c13 -27 13 -32 -4 -61 -11 -17 -17 -36 -13 -41 3 -5 0 -16 -6 -24 -10
-12 -9 -15 4 -15 9 0 16 -8 16 -20 0 -11 -5 -20 -11 -20 -5 0 -7 5 -4 10 3 6
-1 10 -10 10 -13 0 -14 -4 -5 -20 6 -11 14 -20 18 -20 4 0 16 -15 26 -34 19
-36 16 -65 -10 -91 -9 -9 -11 -15 -4 -15 6 0 8 -4 5 -10 -3 -5 -15 -10 -26
-10 -10 0 -19 -5 -19 -11 0 -25 -28 13 -35 47 -8 48 14 186 32 201 13 10 13
16 -6 46 -23 38 -26 59 -11 88 16 28 46 23 63 -10z m-4144 -308 c-24 -26 -35
-40 -24 -32 11 9 27 20 35 24 13 8 13 7 0 -10 -8 -10 -15 -31 -15 -47 0 -15
-3 -28 -7 -28 -5 0 -12 0 -18 0 -5 0 -10 5 -10 10 0 6 5 9 11 8 6 -2 13 5 14
15 3 14 -4 11 -33 -12 -21 -16 -55 -49 -77 -72 -22 -24 -30 -35 -18 -25 12 10
27 15 34 10 8 -4 10 -3 5 5 -5 7 3 22 19 37 28 26 40 30 50 15 9 -15 -17 -62
-32 -57 -10 4 -10 1 -2 -12 13 -20 -13 -164 -31 -170 -5 -2 -10 -19 -10 -38 0
-35 -24 -84 -41 -84 -5 0 -9 9 -9 20 0 20 -20 27 -34 13 -4 -5 -13 -8 -19 -8
-12 0 -13 -4 -16 -43 -1 -15 -8 -18 -35 -16 -27 2 -36 -1 -41 -16 -4 -11 -10
-20 -15 -20 -4 0 -11 -11 -14 -25 -8 -31 -55 -75 -73 -68 -8 3 -20 -3 -28 -13
-7 -11 -18 -20 -24 -20 -22 -3 -23 -4 -11 -19 10 -12 10 -15 -1 -15 -8 0 -20
9 -27 20 -7 12 -18 17 -28 13 -12 -4 -13 -7 -3 -14 8 -4 10 -12 5 -16 -8 -8
-13 -9 -41 -12 -8 0 -15 -10 -15 -21 0 -28 -20 -25 -21 3 -1 16 -2 18 -6 5 -2
-10 -13 -18 -23 -18 -11 0 -17 5 -15 13 3 6 -6 17 -20 24 -14 6 -25 7 -25 2 0
-5 -7 -9 -15 -9 -8 0 -35 -11 -60 -25 -42 -24 -65 -26 -65 -6 0 16 191 226
318 350 70 68 92 93 50 56 -42 -38 -84 -70 -93 -71 -21 -3 -33 -14 -15 -14 9
0 5 -9 -10 -25 -13 -14 -28 -25 -33 -25 -6 0 0 11 13 25 13 14 20 25 15 25 -4
0 0 9 10 20 10 11 23 17 29 13 6 -4 5 0 -2 9 -11 13 -10 16 5 14 11 0 18 6 18
16 0 9 4 20 9 25 5 5 6 2 2 -7 -7 -13 -6 -13 6 0 8 8 20 21 28 29 12 11 12 12
1 6 -9 -5 -12 -4 -8 3 4 5 18 9 32 7 20 -2 23 0 14 12 -9 10 -9 12 2 8 8 -3
25 4 37 15 12 11 22 18 22 15 0 -4 13 3 29 14 15 11 31 17 35 14 3 -4 19 5 34
19 36 34 247 195 286 219 46 28 45 14 -5 -38z m4136 -122 c21 -1 40 -3 41 -4
1 -1 4 -17 7 -35 3 -18 11 -39 17 -47 7 -9 8 -20 2 -32 -17 -33 -23 -90 -12
-119 7 -17 9 -52 5 -86 l-7 -58 -74 0 -74 0 4 103 c3 56 1 119 -3 139 -6 27
-5 42 6 58 8 12 12 29 8 41 -7 20 24 64 35 49 3 -3 23 -7 45 -9z m-5538 -304
c20 -1 20 -1 -1 -34 -11 -18 -24 -33 -28 -33 -5 0 -8 21 -8 48 0 28 4 42 9 34
4 -7 17 -14 28 -15z m98 -27 c-3 -5 -1 -10 6 -10 10 0 10 -3 1 -12 -17 -17
-15 -33 3 -18 8 6 19 9 24 5 6 -3 -20 -47 -62 -102 -70 -94 -72 -96 -78 -67
-15 69 -11 84 47 150 51 58 75 80 59 54z m64 -17 c-6 -7 -15 -10 -20 -7 -13 8
-3 21 15 21 12 0 13 -4 5 -14z m-171 -66 c-7 -14 -13 -17 -16 -9 -6 19 6 44
18 37 7 -4 6 -14 -2 -28z m5607 13 c3 -5 -1 -10 -9 -10 -9 0 -16 -4 -16 -10 0
-5 -7 -10 -16 -10 -8 0 -12 5 -9 10 3 6 2 10 -4 10 -5 0 -13 -4 -16 -10 -3 -5
-11 -10 -16 -10 -6 0 -7 4 -4 10 4 6 -2 7 -17 1 -28 -10 -48 -4 -48 15 0 11
17 14 74 14 41 0 78 -4 81 -10z m-2625 -14 c0 -7 -32 -25 -72 -41 -40 -15 -95
-36 -123 -47 -94 -37 -158 -58 -163 -54 -5 6 39 25 184 81 61 23 124 50 140
58 36 20 34 20 34 3z m-2776 -18 c-8 -12 -6 -140 2 -147 3 -3 10 1 15 9 7 11
9 -6 6 -57 -2 -40 0 -73 4 -73 5 0 9 -10 9 -22 0 -46 22 1 33 71 16 108 31 88
23 -31 -8 -115 0 -116 43 -8 l22 55 -5 -75 c-3 -41 -7 -85 -10 -97 -4 -19 -1
-23 19 -23 34 0 55 -10 55 -26 0 -9 -12 -14 -36 -14 -20 0 -42 -7 -48 -14 -7
-10 -34 -16 -76 -18 -74 -2 -105 -15 -88 -35 6 -7 17 -13 25 -13 10 0 13 -6 9
-15 -4 -11 3 -19 20 -25 34 -13 44 -12 38 3 -3 8 3 20 12 28 16 12 17 12 12
-2 -4 -10 2 -23 14 -34 17 -14 20 -25 15 -67 -5 -36 -3 -48 6 -45 7 2 14 31
17 73 5 64 6 66 13 32 4 -21 16 -42 27 -48 14 -7 19 -21 18 -53 0 -46 -10 -57
-49 -57 -23 0 -27 -5 -31 -35 -4 -36 13 -45 18 -10 3 18 21 35 38 35 5 0 2 -8
-5 -17 -13 -15 -12 -16 9 -11 21 6 22 4 21 -48 -2 -38 -6 -54 -16 -54 -7 0
-13 -5 -13 -10 0 -6 8 -10 17 -8 14 3 16 -6 14 -56 -1 -32 -6 -69 -11 -80 -10
-27 -10 -252 0 -236 4 6 11 11 16 11 5 -1 10 133 11 301 1 167 5 344 8 394 6
79 9 91 23 87 14 -3 16 -15 14 -74 -4 -82 6 -122 19 -74 10 40 5 -31 -11 -130
-6 -38 -7 -81 -4 -95 l7 -25 7 25 c7 21 8 18 9 -17 1 -24 -3 -43 -8 -43 -6 0
-10 -28 -10 -62 1 -62 1 -62 15 -33 14 30 14 29 10 -23 -2 -29 1 -55 6 -58 4
-3 6 -10 2 -15 -3 -5 -10 -7 -15 -4 -5 4 -9 -4 -9 -17 0 -18 2 -20 10 -8 6 10
10 -43 10 -158 0 -170 0 -173 20 -162 11 6 20 8 20 4 0 -3 6 -1 14 5 10 8 16
8 25 -3 13 -15 81 -20 81 -5 0 9 -19 12 -57 9 -17 -1 -23 4 -23 18 0 17 7 19
48 18 43 -1 47 1 50 23 3 19 6 21 13 10 7 -11 9 -11 9 3 0 15 15 16 135 16
125 -1 135 -2 135 -19 0 -14 -7 -19 -27 -19 -14 0 -24 -2 -21 -5 3 -3 77 -7
164 -10 207 -5 223 -6 202 -12 -24 -6 -23 -19 3 -26 24 -6 23 -37 -1 -45 -12
-4 -13 -3 -3 10 11 12 8 17 -13 27 -15 6 -29 9 -33 5 -3 -4 0 -9 7 -11 7 -3
12 -24 12 -58 0 -63 7 -85 27 -85 8 0 11 -5 8 -10 -4 -6 -11 -8 -16 -5 -5 4
-9 -48 -9 -129 0 -75 -2 -136 -4 -136 -2 0 -20 7 -40 15 -39 16 -42 27 -36
130 7 110 4 177 -7 187 -8 6 -83 9 -198 6 l-185 -3 0 -40 c-1 -22 0 -119 0
-216 1 -150 -2 -177 -15 -182 -9 -4 -15 -19 -15 -42 0 -43 -27 -49 -36 -7 -12
55 -27 82 -45 82 -23 0 -27 -31 -13 -98 18 -79 14 -88 -33 -84 -23 2 -44 -1
-48 -7 -4 -7 11 -11 44 -11 28 0 51 -4 51 -10 0 -6 -41 -10 -104 -10 l-104 0
-4 -35 c-3 -28 0 -35 16 -37 11 -2 21 -9 24 -16 3 -9 -4 -11 -23 -8 -17 3 -25
1 -23 -6 6 -18 58 -16 59 2 0 11 2 11 6 2 3 -7 -3 -22 -13 -34 -15 -16 -16
-20 -4 -18 35 5 52 0 46 -15 -4 -12 6 -15 56 -15 81 0 66 -13 -18 -17 -54 -2
-65 0 -60 12 4 10 -1 14 -14 12 -11 -2 -23 -7 -27 -11 -5 -4 -1 -6 7 -4 9 2
14 -3 12 -13 -2 -13 8 -16 53 -15 31 1 55 -3 55 -9 0 -6 -24 -10 -55 -10 -30
1 -55 -3 -55 -8 0 -4 -6 -5 -12 -1 -8 4 -10 3 -5 -2 5 -5 23 -10 40 -10 59 -2
67 -4 67 -13 0 -4 -20 -8 -45 -8 -52 0 -50 1 -59 -33 -6 -19 -5 -21 3 -10 7
10 11 11 11 3 0 -8 15 -13 42 -13 23 0 38 -3 34 -7 -9 -9 -13 -10 -63 -12 -34
-1 -36 -3 -21 -15 13 -10 15 -15 6 -24 -9 -9 -8 -12 5 -13 9 -1 22 -3 27 -4 6
-1 21 -3 35 -4 14 0 25 -6 25 -11 0 -6 -3 -9 -7 -9 -5 1 -34 1 -67 0 -47 -1
-56 -4 -48 -14 9 -10 6 -17 -8 -30 -11 -9 -17 -23 -14 -30 4 -10 -3 -15 -21
-14 -14 0 -28 3 -31 8 -3 5 5 9 17 9 12 0 20 3 16 6 -3 4 -24 6 -45 6 -39 -1
-40 0 -47 41 -8 47 -25 172 -50 352 -13 101 -56 391 -70 475 -5 34 -51 368
-70 510 -8 63 -24 174 -34 245 -31 205 -110 755 -115 807 -3 25 -7 50 -8 55
-2 5 12 26 30 48 38 47 41 37 7 -24 -14 -24 -24 -46 -22 -48 2 -2 26 22 52 54
26 32 52 57 57 55 5 -1 7 2 3 8 -4 6 9 26 28 45 19 19 32 37 28 41 -3 4 0 4 7
0 7 -4 9 -12 6 -18z m2766 -48 c0 -5 -7 -10 -15 -10 -8 0 -15 5 -15 10 0 6 7
10 15 10 8 0 15 -4 15 -10z m-20 -50 c0 -5 -7 -10 -15 -10 -8 0 -15 5 -15 10
0 6 7 10 15 10 8 0 15 -4 15 -10z m-2243 -75 c0 -8 -4 -12 -9 -9 -5 3 -6 10
-3 15 9 13 12 11 12 -6z m2119 -7 c4 -5 -9 -8 -29 -8 -20 0 -37 3 -37 8 0 4
13 7 29 7 16 0 33 -3 37 -7z m-61 -38 c3 -5 1 -10 -4 -10 -6 0 -11 5 -11 10 0
6 2 10 4 10 3 0 8 -4 11 -10z m40 0 c3 -5 1 -10 -4 -10 -6 0 -11 5 -11 10 0 6
2 10 4 10 3 0 8 -4 11 -10z m215 -11 c0 -5 -4 -8 -9 -4 -5 3 -12 1 -15 -4 -3
-5 3 -11 13 -14 11 -3 20 -16 23 -35 2 -17 1 -29 -4 -26 -4 3 -8 0 -8 -5 0 -6
6 -11 13 -11 7 0 25 -28 40 -62 15 -35 45 -83 67 -108 22 -24 40 -50 40 -56 0
-23 -29 -42 -74 -48 -39 -6 -45 -10 -48 -34 -2 -15 -9 -27 -15 -26 -7 1 -40 2
-73 3 -53 1 -60 3 -60 21 0 21 4 22 85 24 38 1 63 20 27 21 -9 1 -47 5 -84 9
-72 9 -92 24 -32 24 20 0 41 5 47 11 8 8 -8 11 -58 12 -63 1 -66 2 -30 9 22 4
52 7 67 6 25 -2 42 12 18 15 -5 1 -19 3 -30 4 -11 1 -30 3 -42 4 -23 2 -23 2
2 12 14 6 33 8 42 5 14 -3 18 2 18 20 0 18 6 24 23 25 22 0 22 0 -2 10 -14 5
-30 8 -36 5 -7 -2 -18 0 -26 5 -10 6 -6 9 16 10 17 0 39 4 50 9 l20 9 -20 2
c-11 1 -26 2 -32 2 -7 -1 -13 3 -13 8 0 5 10 9 23 9 22 1 22 1 2 16 -14 11
-16 18 -7 21 6 3 12 16 12 29 0 17 -6 24 -20 25 -11 1 -24 3 -30 4 -5 1 -29 4
-52 5 -30 2 -18 5 40 10 56 5 89 13 100 24 19 18 32 21 32 5z m1667 -21 c-3
-7 -5 -2 -5 12 0 14 2 19 5 13 2 -7 2 -19 0 -25z m-1937 -6 c0 -5 -13 -7 -30
-4 -16 2 -30 6 -30 8 0 2 14 4 30 4 17 0 30 -4 30 -8z m-917 -19 c-7 -2 -21
-2 -30 0 -10 3 -4 5 12 5 17 0 24 -2 18 -5z m-60 -10 c-7 -2 -19 -2 -25 0 -7
3 -2 5 12 5 14 0 19 -2 13 -5z m2923 -552 l6 -551 -26 0 c-19 0 -24 -4 -19
-16 5 -13 7 -13 14 -2 23 34 29 -28 28 -287 -1 -200 -4 -258 -11 -225 -11 53
-73 276 -84 304 -5 13 -4 17 3 13 14 -9 23 15 16 43 -4 13 0 26 8 31 11 7 11
9 1 9 -10 0 -13 16 -12 63 4 101 2 107 -21 107 -14 0 -19 -5 -16 -14 7 -17
-13 -26 -58 -26 -30 0 -39 7 -85 71 -28 38 -59 77 -70 86 -16 14 -17 19 -5 36
12 17 12 24 -1 50 -13 25 -14 31 -2 38 13 8 11 10 -14 13 -6 0 -13 7 -16 15
-3 10 1 12 17 8 11 -3 21 -1 21 4 0 5 -4 9 -9 9 -15 0 -22 32 -10 46 8 10 38
14 103 14 l91 0 1 120 c2 157 8 186 39 194 14 4 25 13 25 22 0 10 -5 12 -12 7
-20 -12 -58 -15 -58 -5 0 5 6 15 14 21 11 10 17 8 25 -6 10 -17 10 -16 11 4 0
12 6 23 13 26 6 2 12 19 13 38 1 81 17 162 34 179 10 10 20 16 22 14 3 -2 5 4
5 14 -1 50 4 95 8 90 3 -3 8 -253 11 -557z m-1896 539 c0 -5 -7 -10 -15 -10
-8 0 -15 5 -15 10 0 6 7 10 15 10 8 0 15 -4 15 -10z m2541 -21 c-8 -22 -10
-22 -16 -5 -5 11 -3 21 6 26 19 12 21 7 10 -21z m-3674 15 c-3 -3 -12 -4 -19
-1 -8 3 -5 6 6 6 11 1 17 -2 13 -5z m-54 -11 c-7 -2 -21 -2 -30 0 -10 3 -4 5
12 5 17 0 24 -2 18 -5z m3028 -61 c-6 -10 -9 0 -9 29 0 40 1 41 9 15 4 -16 4
-36 0 -44z m-3096 51 c-70 -17 -96 -20 -89 -13 10 9 47 17 84 17 19 1 21 0 5
-4z m1285 -19 c0 -2 -11 -4 -25 -4 -14 0 -25 4 -25 9 0 4 11 6 25 3 14 -2 25
-6 25 -8z m37 0 c-3 -3 -12 -4 -19 -1 -8 3 -5 6 6 6 11 1 17 -2 13 -5z m-2430
-29 c0 -8 -4 -15 -9 -15 -10 0 -11 14 -1 23 9 10 10 9 10 -8z m2280 9 c-3 -3
-12 -4 -19 -1 -8 3 -5 6 6 6 11 1 17 -2 13 -5z m-2276 -67 c-10 -9 -11 -8 -5
6 3 10 9 15 12 12 3 -3 0 -11 -7 -18z m2252 16 c-13 -2 -35 -2 -50 0 -16 2 -5
4 22 4 28 0 40 -2 28 -4z m134 1 c-3 -3 -12 -4 -19 -1 -8 3 -5 6 6 6 11 1 17
-2 13 -5z m46 -1 c-7 -2 -19 -2 -25 0 -7 3 -2 5 12 5 14 0 19 -2 13 -5z m2469
-26 c0 -4 -4 -36 -7 -72 -5 -43 -4 -70 4 -78 6 -8 9 -16 6 -19 -3 -2 -7 -31
-10 -63 -4 -33 -8 -61 -10 -63 -1 -2 -7 21 -13 50 -5 29 -13 61 -17 71 -5 12
-3 17 6 15 14 -3 16 17 19 145 0 16 5 27 11 25 6 -2 11 -7 11 -11z m-2652 -7
c0 -5 -7 -10 -15 -10 -8 0 -15 5 -15 10 0 6 7 10 15 10 8 0 15 -4 15 -10z m70
0 c0 -5 -5 -10 -11 -10 -5 0 -7 5 -4 10 3 6 8 10 11 10 2 0 4 -4 4 -10z m30 6
c0 -3 -4 -8 -10 -11 -5 -3 -10 -1 -10 4 0 6 5 11 10 11 6 0 10 -2 10 -4z m77
-18 c-3 -8 -6 -5 -6 6 -1 11 2 17 5 13 3 -3 4 -12 1 -19z m63 2 c0 -5 -7 -10
-15 -10 -8 0 -15 5 -15 10 0 6 7 10 15 10 8 0 15 -4 15 -10z m2450 -27 c0 -43
-5 -41 -13 5 -4 18 -2 32 3 32 6 0 10 -16 10 -37z m-2712 0 c-10 -2 -26 -2
-35 0 -10 3 -2 5 17 5 19 0 27 -2 18 -5z m139 -9 c-3 -3 -12 -4 -19 -1 -8 3
-5 6 6 6 11 1 17 -2 13 -5z m-917 -24 c0 -5 -4 -10 -10 -10 -5 0 -10 5 -10 10
0 6 5 10 10 10 6 0 10 -4 10 -10z m60 0 c0 -5 -9 -10 -20 -10 -11 0 -20 5 -20
10 0 6 9 10 20 10 11 0 20 -4 20 -10z m240 0 c0 -6 -14 -10 -31 -10 -16 0 -28
3 -25 8 7 11 56 13 56 2z m540 -6 c0 -2 -12 -4 -26 -4 -14 0 -23 4 -20 9 6 8
46 4 46 -5z m-470 -4 c0 -6 -11 -8 -27 -4 -40 10 -41 14 -5 14 18 0 32 -5 32
-10z m110 0 c0 -5 -20 -10 -45 -10 -25 0 -45 5 -45 10 0 6 20 10 45 10 25 0
45 -4 45 -10z m178 -9 c3 -10 -1 -12 -19 -8 -13 4 -50 7 -81 7 -32 0 -58 4
-58 8 0 5 35 9 77 8 56 -1 78 -5 81 -15z m260 2 c-10 -2 -26 -2 -35 0 -10 3
-2 5 17 5 19 0 27 -2 18 -5z m-2415 -56 c-9 -15 -21 4 -15 25 5 21 6 21 12 2
4 -10 5 -22 3 -27z m2324 30 c3 -4 -17 -7 -45 -7 -29 0 -52 4 -52 10 0 11 86
8 97 -3z m143 -9 c0 -4 -7 -8 -15 -8 -8 0 -15 4 -15 8 0 5 7 9 15 9 8 0 15 -4
15 -9z m-220 -29 c0 -5 -4 -9 -10 -9 -5 0 -10 7 -10 16 0 8 5 12 10 9 6 -3 10
-10 10 -16z m90 7 c0 -6 -18 -12 -40 -13 -38 -2 -55 10 -27 20 24 8 67 3 67
-7z m-3010 -186 c2 52 2 113 1 135 -5 70 7 33 18 -55 6 -47 13 -160 16 -251 2
-91 7 -173 10 -182 4 -8 1 -18 -4 -22 -6 -3 -8 -11 -5 -17 9 -14 11 -147 2
-142 -3 2 -4 -12 -3 -33 2 -20 10 -40 17 -44 10 -7 9 -22 -6 -81 -21 -81 -35
-118 -47 -118 -4 0 -5 -8 -2 -19 3 -10 0 -22 -6 -25 -8 -5 -10 140 -9 511 1
285 5 457 8 383 l6 -135 4 95z m3120 160 c0 -5 -17 -10 -37 -10 -28 0 -34 3
-23 10 20 13 60 13 60 0z m-110 -10 c0 -5 -6 -10 -12 -11 -10 0 -10 -2 0 -6
17 -7 15 -65 -3 -99 -8 -16 -15 -39 -15 -52 0 -13 -10 -38 -23 -57 -18 -26
-26 -31 -40 -24 -15 9 -17 25 -15 115 2 57 6 104 11 104 5 0 5 9 2 20 -6 18
-2 20 44 20 28 0 51 -4 51 -10z m2650 -24 c0 -3 -7 -3 -15 0 -8 4 -15 13 -15
21 0 12 2 12 15 -1 8 -8 15 -17 15 -20z m-3783 18 c-3 -3 -12 -4 -19 -1 -8 3
-5 6 6 6 11 1 17 -2 13 -5z m1278 -25 c6 -1 -6 -5 -25 -8 -38 -8 -60 -4 -60
10 0 8 43 7 85 -2z m-1300 -9 c-3 -5 -10 -10 -16 -10 -5 0 -9 5 -9 10 0 6 7
10 16 10 8 0 12 -4 9 -10z m899 -1 c3 -3 -6 -6 -19 -7 -14 -1 -25 3 -25 8 0
10 35 9 44 -1z m36 2 c0 -5 3 -16 6 -25 5 -13 -1 -16 -25 -16 -17 0 -31 5 -31
10 0 6 9 10 20 10 13 0 18 5 14 15 -4 8 -1 15 5 15 6 0 11 -4 11 -9z m-1130
-21 c0 -5 -5 -10 -11 -10 -5 0 -7 5 -4 10 3 6 8 10 11 10 2 0 4 -4 4 -10z
m840 -16 c0 -2 -17 -4 -37 -3 -33 1 -35 2 -13 8 23 7 50 4 50 -5z m605 -5 c-8
-12 -45 -12 -45 0 0 10 30 20 43 14 4 -3 5 -9 2 -14z m175 8 c0 -9 -10 -12
-30 -9 -16 2 -30 8 -30 13 0 5 14 9 30 9 18 0 30 -5 30 -13z m72 -37 c9 -27
14 -59 11 -70 -3 -12 2 -29 13 -42 l19 -21 -31 16 c-17 9 -34 25 -37 37 -3 13
-10 18 -21 14 -11 -4 -16 0 -16 14 0 15 5 19 20 15 14 -4 20 0 20 11 0 9 -8
16 -18 16 -14 0 -19 8 -19 30 0 24 5 30 22 30 17 0 25 -11 37 -50z m-302 30
c0 -5 -2 -10 -4 -10 -3 0 -8 5 -11 10 -3 6 -1 10 4 10 6 0 11 -4 11 -10z
m-767 -7 c-13 -2 -35 -2 -50 0 -16 2 -5 4 22 4 28 0 40 -2 28 -4z m-440 -10
c-18 -2 -48 -2 -65 0 -18 2 -4 4 32 4 36 0 50 -2 33 -4z m210 0 c-7 -2 -21 -2
-30 0 -10 3 -4 5 12 5 17 0 24 -2 18 -5z m60 0 c-7 -2 -19 -2 -25 0 -7 3 -2 5
12 5 14 0 19 -2 13 -5z m332 -13 c3 -5 1 -10 -4 -10 -6 0 -11 5 -11 10 0 6 2
10 4 10 3 0 8 -4 11 -10z m345 0 c0 -5 -9 -12 -20 -15 -28 -9 -25 -25 4 -25
32 0 56 -10 56 -22 0 -12 -439 -7 -446 4 -5 8 12 11 56 9 22 -1 23 0 6 7 -19
8 -19 9 1 14 29 8 123 -3 123 -14 0 -5 9 -3 19 5 15 9 36 11 78 6 32 -3 61 -4
66 -2 13 7 7 23 -9 23 -8 0 -13 4 -10 8 7 12 76 14 76 2z m-283 -6 c-3 -3 -12
-4 -19 -1 -8 3 -5 6 6 6 11 1 17 -2 13 -5z m-693 -31 c16 -58 17 -83 3 -88
-15 -6 -19 -35 -5 -35 4 0 8 -4 8 -10 0 -5 -6 -10 -14 -10 -8 0 -18 -5 -22
-11 -4 -7 0 -9 14 -5 29 10 38 -12 10 -23 -46 -19 -240 -62 -254 -57 -26 10
-6 24 49 35 69 15 151 34 156 37 2 2 -6 15 -17 29 -17 21 -19 31 -11 60 6 20
7 40 4 45 -4 6 -3 19 0 30 8 27 71 29 79 3z m71 7 c4 -6 -7 -10 -24 -10 -17 0
-31 5 -31 10 0 6 11 10 24 10 14 0 28 -4 31 -10z m3725 -11 c0 -5 -4 -9 -10
-9 -5 0 -10 7 -10 16 0 8 5 12 10 9 6 -3 10 -10 10 -16z m-4040 1 c0 -5 -5
-10 -11 -10 -5 0 -7 5 -4 10 3 6 8 10 11 10 2 0 4 -4 4 -10z m537 4 c-3 -3
-12 -4 -19 -1 -8 3 -5 6 6 6 11 1 17 -2 13 -5z m56 -1 c-7 -2 -19 -2 -25 0 -7
3 -2 5 12 5 14 0 19 -2 13 -5z m-515 -10 c-10 -2 -28 -2 -40 0 -13 2 -5 4 17
4 22 1 32 -1 23 -4z m-58 -24 c0 -5 -11 -9 -25 -9 -14 0 -25 4 -25 9 0 5 11 9
25 9 14 0 25 -4 25 -9z m68 0 c-2 -6 -8 -10 -13 -10 -5 0 -11 4 -13 10 -2 6 4
11 13 11 9 0 15 -5 13 -11z m3066 -16 c-3 -14 -10 -36 -16 -47 -11 -20 -12
-20 -21 8 -8 25 -7 32 13 48 29 23 30 23 24 -9z m806 12 c0 -8 -7 -15 -15 -15
-9 0 -12 6 -9 15 4 8 10 15 15 15 5 0 9 -7 9 -15z m-3152 -16 c7 -12 11 -24 8
-27 -3 -3 -6 0 -6 6 0 7 -9 12 -20 12 -20 0 -26 11 -13 23 11 11 17 8 31 -14z
m2261 5 c-10 -13 -10 -17 1 -24 8 -5 18 -6 23 -3 5 3 6 -5 1 -18 -4 -13 -7
-32 -6 -41 1 -26 -16 -32 -23 -8 -4 11 -11 17 -17 14 -6 -4 -8 -3 -5 2 3 6 2
16 -3 24 -9 15 4 49 24 62 18 12 19 9 5 -8z m971 6 c0 -5 -4 -10 -10 -10 -5 0
-10 5 -10 10 0 6 5 10 10 10 6 0 10 -4 10 -10z m-3915 -30 c1 -15 -2 -17 -15
-10 -10 5 -20 6 -24 3 -3 -3 -6 -1 -6 5 0 7 9 12 21 12 13 0 18 4 13 13 -4 6
-3 9 1 4 5 -4 9 -16 10 -27z m545 1 c0 -4 -9 -7 -20 -7 -11 0 -20 6 -20 12 0
7 8 10 20 7 11 -3 20 -8 20 -12z m2364 7 c-4 -6 -8 -53 -8 -104 -1 -51 -4 -95
-7 -98 -3 -4 -18 12 -34 34 -15 21 -36 42 -47 46 -12 3 -17 11 -14 21 3 8 6
21 6 28 0 19 42 62 71 74 33 13 41 13 33 -1z m-2977 -5 c-10 -9 -77 -11 -83
-1 -3 4 16 8 42 8 26 0 44 -3 41 -7z m453 0 c0 -5 -22 -8 -50 -8 -27 0 -50 3
-50 8 0 4 23 7 50 7 28 0 50 -3 50 -7z m70 -3 c0 -6 -11 -8 -27 -4 -40 10 -41
14 -5 14 18 0 32 -5 32 -10z m3460 -12 c0 -16 -3 -19 -11 -11 -6 6 -8 16 -5
22 11 17 16 13 16 -11z m-3242 -5 c-2 -10 3 -26 11 -35 25 -29 10 -148 -19
-148 -9 0 -27 95 -22 113 1 4 3 25 4 47 1 27 6 40 15 40 8 0 13 -7 11 -17z
m-3281 -190 c-1 -67 -6 -98 -14 -101 -15 -4 -18 158 -6 244 l7 49 7 -48 c4
-26 7 -91 6 -144z m2549 179 c-7 -12 -76 -13 -76 -2 0 6 18 10 41 10 22 0 38
-4 35 -8z m44 -2 c0 -5 -7 -10 -15 -10 -8 0 -15 5 -15 10 0 6 7 10 15 10 8 0
15 -4 15 -10z m360 0 c0 -5 -4 -10 -10 -10 -5 0 -10 5 -10 10 0 6 5 10 10 10
6 0 10 -4 10 -10z m190 -4 c0 -9 -58 -12 -132 -7 -5 1 -8 5 -8 9 0 4 32 8 70
8 43 0 70 -4 70 -10z m-595 -27 c4 -6 1 -10 -6 -8 -8 1 -25 0 -39 -1 l-25 -2
25 -8 25 -8 -25 -1 c-22 -1 -23 -3 -7 -12 9 -5 22 -7 27 -4 6 3 10 1 10 -4 0
-11 -28 -16 -60 -11 -23 3 -26 10 -10 20 13 9 13 10 0 10 -13 0 -13 1 0 10 10
6 11 10 3 10 -7 0 -13 5 -13 10 0 13 87 13 95 -1z m55 1 c0 -5 -5 -10 -11 -10
-5 0 -8 -4 -5 -9 8 -13 -16 -19 -39 -10 -14 5 -16 8 -5 9 8 2 18 2 22 1 4 0 5
6 2 14 -4 10 0 15 15 15 12 0 21 -4 21 -10z m409 -19 c18 -18 30 -21 71 -18
37 3 50 1 50 -9 0 -10 -16 -14 -57 -14 -45 -1 -54 -3 -40 -11 9 -5 22 -7 28
-3 7 4 9 -1 7 -12 -2 -11 -10 -18 -16 -16 -7 1 -12 -2 -12 -8 0 -5 18 -10 40
-10 29 0 40 -4 40 -15 0 -8 -4 -15 -10 -15 -5 0 -10 -4 -10 -10 0 -5 7 -10 15
-10 8 0 15 -4 15 -10 0 -5 -15 -10 -34 -10 -38 0 -59 -17 -23 -19 12 0 36 -2
53 -4 25 -2 31 0 26 12 -3 9 -1 12 5 8 16 -10 13 -98 -3 -104 -7 -2 -15 -11
-18 -18 -3 -9 0 -12 10 -8 7 3 14 0 14 -7 0 -15 -26 -41 -34 -33 -3 4 -6 -2
-7 -13 -1 -14 -3 -13 -8 6 -6 19 -13 24 -32 22 -35 -5 -45 -20 -13 -18 15 0
29 -5 32 -12 2 -7 -2 -13 -9 -11 -28 3 -52 -1 -45 -8 4 -5 30 -8 57 -8 27 0
49 -4 49 -10 0 -5 -24 -10 -53 -10 -41 0 -52 -4 -55 -18 -2 -10 3 -17 12 -17
26 0 18 -27 -10 -33 -30 -5 -41 12 -25 41 7 13 6 26 -5 48 -14 26 -14 30 2 41
16 11 16 13 2 13 -14 0 -16 12 -15 76 1 42 -1 81 -5 87 -4 6 -3 16 1 22 17 20
-7 55 -39 56 -39 2 -41 2 -65 16 -11 7 -15 13 -8 13 14 0 43 28 43 41 0 5 -11
11 -25 15 -24 6 -31 15 -20 26 4 3 27 5 54 4 34 -2 54 -9 70 -25z m151 12 c0
-9 -18 -13 -55 -13 -51 0 -65 7 -48 24 12 12 103 2 103 -11z m3810 7 c0 -5 -5
-10 -11 -10 -5 0 -7 5 -4 10 3 6 8 10 11 10 2 0 4 -4 4 -10z m70 0 c0 -5 -4
-10 -10 -10 -5 0 -10 5 -10 10 0 6 5 10 10 10 6 0 10 -4 10 -10z m-4283 -42
c-3 -8 -6 -5 -6 6 -1 11 2 17 5 13 3 -3 4 -12 1 -19z m3618 12 c3 -5 -1 -10
-9 -10 -9 0 -16 5 -16 10 0 6 4 10 9 10 6 0 13 -4 16 -10z m125 0 c0 -5 -9
-10 -20 -10 -11 0 -20 5 -20 10 0 6 9 10 20 10 11 0 20 -4 20 -10z m-6460 -10
c0 -5 -4 -10 -10 -10 -5 0 -10 5 -10 10 0 6 5 10 10 10 6 0 10 -4 10 -10z
m3130 -4 c0 -3 -4 -8 -10 -11 -5 -3 -10 -1 -10 4 0 6 5 11 10 11 6 0 10 -2 10
-4z m3206 -19 c4 -4 -5 -7 -20 -7 -15 0 -25 4 -22 9 7 10 31 9 42 -2z m124 3
c0 -5 -5 -10 -11 -10 -5 0 -7 5 -4 10 3 6 8 10 11 10 2 0 4 -4 4 -10z m-2111
-19 c18 -18 19 -38 17 -424 -1 -271 -5 -409 -12 -418 -6 -8 -14 -24 -17 -36
-4 -18 -1 -23 13 -23 29 0 50 -11 50 -26 0 -11 -18 -14 -80 -14 -73 0 -80 2
-80 20 0 13 7 20 20 20 22 0 23 1 14 23 -3 8 -13 13 -24 10 -10 -3 -21 0 -24
6 -4 6 0 11 8 11 18 0 21 16 6 25 -5 3 -10 0 -11 -7 -1 -7 -7 7 -13 32 -13 47
-11 65 4 40 7 -11 9 -5 9 20 -1 19 -3 27 -6 18 -2 -10 -8 -18 -13 -18 -10 0
-7 121 4 138 4 7 2 12 -3 12 -15 0 -14 32 3 55 17 26 25 70 15 87 -6 8 -9 1
-9 -20 0 -18 -5 -42 -10 -53 -12 -22 -35 -26 -26 -4 3 8 1 15 -5 15 -5 0 -2
11 7 25 8 13 13 29 9 35 -3 5 -1 10 6 10 8 0 9 3 0 13 -6 8 -8 17 -4 20 12 12
23 7 23 -10 0 -23 13 -7 15 18 1 12 -3 18 -11 15 -9 -4 -9 1 1 21 9 18 13 54
10 117 -3 84 -2 93 21 124 14 17 28 32 32 32 4 0 5 -48 2 -106 -3 -58 -2 -108
3 -111 4 -2 7 17 8 44 0 26 2 64 4 83 2 19 5 72 7 117 2 46 6 83 11 83 4 0 16
-9 26 -19z m-1639 -1 c0 -5 -4 -10 -10 -10 -5 0 -10 5 -10 10 0 6 5 10 10 10
6 0 10 -4 10 -10z m-2710 -10 c0 -5 -4 -10 -10 -10 -5 0 -10 5 -10 10 0 6 5
10 10 10 6 0 10 -4 10 -10z m3603 -7 c-7 -2 -19 -2 -25 0 -7 3 -2 5 12 5 14 0
19 -2 13 -5z m2722 -3 c-17 -7 -17 -9 -2 -9 27 -1 20 -21 -7 -21 -19 0 -24 5
-23 20 1 15 8 20 27 19 23 0 23 -1 5 -9z m88 3 c-7 -2 -21 -2 -30 0 -10 3 -4
5 12 5 17 0 24 -2 18 -5z m48 -6 c-6 -8 -8 -17 -4 -20 3 -4 1 -7 -5 -7 -14 0
-14 2 -6 24 3 9 11 16 16 16 7 0 6 -5 -1 -13z m-4681 -17 c0 -4 -7 -10 -15
-13 -16 -7 -29 8 -20 23 6 10 35 2 35 -10z m150 11 c0 -6 -5 -13 -10 -16 -15
-9 -43 3 -35 15 8 13 45 13 45 1z m40 -6 c0 -8 -7 -15 -15 -15 -8 0 -15 7 -15
15 0 8 7 15 15 15 8 0 15 -7 15 -15z m30 -1 c0 -8 -4 -12 -10 -9 -5 3 -10 10
-10 16 0 5 5 9 10 9 6 0 10 -7 10 -16z m-170 -4 c0 -5 -9 -10 -20 -10 -11 0
-20 5 -20 10 0 6 9 10 20 10 11 0 20 -4 20 -10z m4600 0 c0 -5 -4 -10 -10 -10
-5 0 -10 5 -10 10 0 6 5 10 10 10 6 0 10 -4 10 -10z m-6434 -27 c-10 -10 -19
5 -10 18 6 11 8 11 12 0 2 -7 1 -15 -2 -18z m4747 2 c20 -14 37 -30 37 -35 0
-13 -71 -181 -126 -297 -51 -110 -52 -111 -122 -97 -27 6 -31 10 -28 35 2 16
0 29 -5 29 -5 0 -7 14 -5 30 2 20 -2 34 -13 40 -15 9 -15 9 0 10 18 0 24 46 8
56 -12 7 -11 44 1 44 6 0 10 5 10 11 0 5 -5 7 -12 3 -7 -5 -8 -3 -3 6 5 8 8
33 6 56 -2 47 17 74 53 74 12 0 26 4 32 10 8 8 105 47 124 49 3 1 22 -10 43
-24z m-2228 -5 c-3 -5 -26 -10 -51 -10 -24 0 -44 5 -44 10 0 6 23 10 51 10 31
0 48 -4 44 -10z m95 0 c0 -5 -13 -10 -30 -10 -16 0 -30 5 -30 10 0 6 14 10 30
10 17 0 30 -4 30 -10z m-860 -15 c0 -8 -7 -15 -15 -15 -26 0 -18 20 13 29 1 1
2 -6 2 -14z m468 -2 c2 -8 -6 -13 -22 -13 -17 0 -26 5 -26 16 0 19 41 16 48
-3z m162 2 c0 -8 -7 -15 -15 -15 -8 0 -15 7 -15 15 0 8 7 15 15 15 8 0 15 -7
15 -15z m-676 -10 c-4 -8 -8 -15 -10 -15 -2 0 -4 7 -4 15 0 8 4 15 10 15 5 0
7 -7 4 -15z m276 5 c0 -5 -4 -10 -10 -10 -5 0 -10 5 -10 10 0 6 5 10 10 10 6
0 10 -4 10 -10z m120 0 c0 -5 -25 -10 -55 -10 -30 0 -55 5 -55 10 0 6 25 10
55 10 30 0 55 -4 55 -10z m4900 0 c-20 -13 -40 -13 -40 0 0 6 12 10 28 10 21
0 24 -2 12 -10z m-6610 -15 c-7 -8 -17 -12 -22 -9 -6 4 -5 10 3 15 22 14 33
10 19 -6z m2170 0 c0 -2 -16 -5 -35 -7 -21 -2 -35 0 -35 7 0 7 14 9 35 7 19
-2 35 -5 35 -7z m-100 -5 c0 -5 -7 -7 -15 -4 -8 4 -15 8 -15 10 0 2 7 4 15 4
8 0 15 -4 15 -10z m250 0 c0 -16 -85 -16 -124 0 -14 6 2 9 52 9 42 1 72 -3 72
-9z m47 -12 c-3 -8 -6 -5 -6 6 -1 11 2 17 5 13 3 -3 4 -12 1 -19z m33 13 c0
-6 -4 -13 -10 -16 -5 -3 -10 1 -10 9 0 9 5 16 10 16 6 0 10 -4 10 -9z m50 -7
c0 -8 -4 -12 -10 -9 -5 3 -10 10 -10 16 0 5 5 9 10 9 6 0 10 -7 10 -16z m110
8 c0 -5 -16 -9 -35 -10 -19 -1 -35 3 -35 8 0 6 16 10 35 10 19 0 35 -4 35 -8z
m343 -9 c-18 -2 -48 -2 -65 0 -18 2 -4 4 32 4 36 0 50 -2 33 -4z m344 1 c-3
-3 -12 -4 -19 -1 -8 3 -5 6 6 6 11 1 17 -2 13 -5z m808 -14 c11 5 22 9 25 9 3
1 1 -45 -5 -101 l-10 -103 -30 3 c-16 2 -33 9 -38 15 -8 12 -7 148 1 180 4 16
7 16 21 4 10 -10 23 -12 36 -7z m-4535 0 c0 -5 -4 -10 -9 -10 -6 0 -13 5 -16
10 -3 6 1 10 9 10 9 0 16 -4 16 -10z m4914 -34 c16 -34 16 -36 -12 -78 -28
-42 -49 -118 -51 -188 -2 -52 -34 -76 -94 -72 l-46 4 28 56 c16 32 54 117 86
189 32 73 61 131 65 128 4 -3 15 -20 24 -39z m-2804 24 c0 -5 -4 -10 -10 -10
-5 0 -10 5 -10 10 0 6 5 10 10 10 6 0 10 -4 10 -10z m150 -1 c0 -7 -36 -19
-57 -19 -7 0 -13 7 -13 15 0 12 9 15 35 13 19 -1 35 -5 35 -9z m60 -4 c0 -4
-11 -9 -25 -11 -16 -2 -25 2 -25 12 0 10 8 14 25 11 14 -2 25 -7 25 -12z m37
-7 c-3 -8 -6 -5 -6 6 -1 11 2 17 5 13 3 -3 4 -12 1 -19z m233 11 c0 -5 -21 -9
-46 -9 -25 0 -43 4 -39 9 7 12 85 12 85 0z m35 1 c3 -5 1 -10 -4 -10 -6 0 -11
5 -11 10 0 6 2 10 4 10 3 0 8 -4 11 -10z m905 0 c0 -6 -55 -10 -145 -10 -90 0
-145 4 -145 10 0 6 55 10 145 10 90 0 145 -4 145 -10z m-3445 -9 c3 -5 1 -12
-5 -16 -5 -3 -10 1 -10 9 0 18 6 21 15 7z m348 3 c4 -4 -2 -19 -13 -34 -15
-22 -25 -26 -50 -22 -41 6 -25 18 29 21 10 1 11 4 2 14 -16 20 13 39 32 21z
m6127 -6 c0 -5 -27 -8 -60 -8 -33 0 -60 3 -60 8 0 4 27 7 60 7 33 0 60 -3 60
-7z m-3800 -8 c0 -5 -12 -10 -26 -10 -14 0 -23 4 -19 10 3 6 15 10 26 10 10 0
19 -4 19 -10z m180 0 c0 -5 -16 -10 -35 -10 -19 0 -35 5 -35 10 0 6 16 10 35
10 19 0 35 -4 35 -10z m-260 -11 c0 -5 -29 -9 -65 -9 -85 0 -85 14 0 17 36 1
65 -3 65 -8z m4375 1 c3 -5 1 -10 -4 -10 -6 0 -11 5 -11 10 0 6 2 10 4 10 3 0
8 -4 11 -10z m-505 -10 c0 -5 -7 -10 -15 -10 -8 0 -15 5 -15 10 0 6 7 10 15
10 8 0 15 -4 15 -10z m-6414 -27 c4 -22 1 -23 -72 -22 -55 1 -77 5 -81 15 -3
8 -17 14 -32 15 -23 0 -24 1 -6 9 11 5 58 8 104 7 79 -2 84 -3 87 -24z m41 21
c-3 -3 -12 -4 -19 -1 -8 3 -5 6 6 6 11 1 17 -2 13 -5z m46 -1 c-7 -2 -19 -2
-25 0 -7 3 -2 5 12 5 14 0 19 -2 13 -5z m1997 -8 c0 -8 -7 -15 -15 -15 -8 0
-15 7 -15 15 0 8 7 15 15 15 8 0 15 -7 15 -15z m60 2 c0 -7 -9 -13 -20 -14
-11 -1 -20 4 -20 13 0 8 9 14 20 14 11 0 20 -6 20 -13z m30 -2 c0 -8 -4 -15
-10 -15 -5 0 -10 7 -10 15 0 8 5 15 10 15 6 0 10 -7 10 -15z m130 0 c0 -6 -13
-12 -30 -13 -21 -2 -30 2 -30 12 0 11 9 15 30 13 16 -1 30 -7 30 -12z m37 -7
c-3 -8 -6 -5 -6 6 -1 11 2 17 5 13 3 -3 4 -12 1 -19z m-2152 -5 c-2 -10 -4
-19 -4 -21 -1 -2 -6 0 -11 3 -8 5 -7 11 1 21 15 18 18 18 14 -3z m1495 13 c0
-11 -19 -15 -25 -6 -3 5 1 10 9 10 9 0 16 -2 16 -4z m40 -6 c0 -5 -4 -10 -9
-10 -6 0 -13 5 -16 10 -3 6 1 10 9 10 9 0 16 -4 16 -10z m30 0 c0 -5 -2 -10
-4 -10 -3 0 -8 5 -11 10 -3 6 -1 10 4 10 6 0 11 -4 11 -10z m90 0 c0 -5 -9
-10 -20 -10 -11 0 -20 5 -20 10 0 6 9 10 20 10 11 0 20 -4 20 -10z m100 0 c0
-5 -6 -10 -14 -10 -8 0 -18 5 -21 10 -3 6 3 10 14 10 12 0 21 -4 21 -10z m500
0 c0 -5 -5 -10 -11 -10 -5 0 -7 5 -4 10 3 6 8 10 11 10 2 0 4 -4 4 -10z m288
-2 c-3 -9 -27 -13 -73 -13 -46 0 -70 4 -72 13 -4 9 15 12 72 12 57 0 76 -3 73
-12z m32 -4 c0 -8 -4 -12 -10 -9 -5 3 -10 10 -10 16 0 5 5 9 10 9 6 0 10 -7
10 -16z m440 8 c0 -4 -20 -8 -45 -8 -25 -1 -45 3 -45 8 0 4 20 8 45 8 25 0 45
-4 45 -8z m155 2 c-48 -8 -115 -9 -115 -2 0 5 30 7 68 7 37 -1 58 -3 47 -5z
m-3005 -201 l-1 -198 -23 27 c-20 22 -23 34 -19 69 5 36 4 41 -10 36 -11 -4
-14 -2 -11 8 3 7 11 16 18 18 8 3 11 33 10 98 -1 72 2 99 15 116 9 12 17 23
19 23 1 0 2 -89 2 -197z m2208 192 c-7 -7 -97 -9 -105 -2 -3 4 20 7 52 7 32 0
56 -2 53 -5z m4372 1 c0 -3 -4 -8 -10 -11 -5 -3 -10 -1 -10 4 0 6 5 11 10 11
6 0 10 -2 10 -4z m-4415 -36 c4 -6 -24 -9 -77 -8 l-83 2 75 6 c41 4 76 7 77 8
1 1 5 -2 8 -8z m255 -5 c0 -5 -20 -9 -45 -10 -26 -1 -45 3 -45 10 0 6 19 10
45 9 25 -1 45 -5 45 -9z m107 -7 c-3 -8 -6 -5 -6 6 -1 11 2 17 5 13 3 -3 4
-12 1 -19z m363 18 c0 -11 -19 -15 -25 -6 -3 5 1 10 9 10 9 0 16 -2 16 -4z
m215 -15 c22 -1 47 -10 55 -18 13 -14 12 -15 -10 -9 -14 3 -39 6 -55 6 -20 0
-35 7 -44 23 -12 19 -12 21 0 11 8 -5 32 -11 54 -13z m-1825 -3 c0 14 21 12
32 -3 5 -6 8 -5 8 3 0 7 14 12 35 12 27 0 33 -3 28 -15 -4 -12 -18 -15 -52
-14 -26 1 -53 -1 -59 -5 -8 -5 -12 1 -12 16 0 18 2 20 10 8 6 -10 10 -11 10
-2z m193 -2 c6 -16 -2 -28 -14 -20 -12 7 -11 34 0 34 5 0 11 -6 14 -14z m37 2
c0 15 31 12 42 -3 5 -6 8 -5 8 3 0 6 9 12 20 12 22 0 27 -15 8 -27 -35 -21
-98 -12 -98 15 0 15 2 15 10 2 7 -11 10 -11 10 -2z m153 -2 c3 -8 -1 -17 -9
-20 -26 -10 -34 -7 -34 14 0 23 35 28 43 6z m24 -8 c-3 -8 -6 -5 -6 6 -1 11 2
17 5 13 3 -3 4 -12 1 -19z m803 12 c0 -5 -2 -10 -4 -10 -3 0 -8 5 -11 10 -3 6
-1 10 4 10 6 0 11 -4 11 -10z m4100 0 c0 -5 -7 -10 -16 -10 -8 0 -12 5 -9 10
3 6 10 10 16 10 5 0 9 -4 9 -10z m-4392 -24 c3 -3 -9 -7 -26 -7 -78 -3 -122 0
-122 9 0 8 139 6 148 -2z m4447 4 c3 -5 1 -10 -4 -10 -6 0 -11 5 -11 10 0 6 2
10 4 10 3 0 8 -4 11 -10z m-4404 -23 c-13 -13 -26 -3 -16 12 3 6 11 8 17 5 6
-4 6 -10 -1 -17z m599 7 c0 -2 -7 -4 -15 -4 -8 0 -15 4 -15 10 0 5 7 7 15 4 8
-4 15 -8 15 -10z m150 6 c0 -5 -5 -10 -11 -10 -5 0 -7 5 -4 10 3 6 8 10 11 10
2 0 4 -4 4 -10z m-660 -10 c0 -5 -13 -10 -30 -10 -16 0 -30 5 -30 10 0 6 14
10 30 10 17 0 30 -4 30 -10z m90 0 c0 -5 -16 -10 -35 -10 -19 0 -35 5 -35 10
0 6 16 10 35 10 19 0 35 -4 35 -10z m80 0 c0 -5 -4 -10 -10 -10 -5 0 -10 5
-10 10 0 6 5 10 10 10 6 0 10 -4 10 -10z m40 0 c0 -5 -4 -10 -10 -10 -5 0 -10
5 -10 10 0 6 5 10 10 10 6 0 10 -4 10 -10z m655 -10 c4 -6 -19 -9 -62 -8 l-68
1 60 7 c33 4 61 7 62 8 1 1 5 -2 8 -8z m-1472 -6 c3 -3 3 -12 0 -20 -4 -10
-21 -14 -59 -13 -45 2 -54 5 -54 21 0 15 8 18 53 18 30 0 56 -3 60 -6z m187
-15 c0 -16 -8 -19 -50 -19 -38 0 -50 4 -50 15 0 8 -5 15 -11 15 -6 0 -9 -7 -5
-15 3 -9 0 -15 -9 -15 -8 0 -15 9 -15 20 0 19 6 21 70 19 61 -2 70 -4 70 -20z
m60 1 c0 -11 -4 -20 -9 -20 -5 0 -11 9 -14 20 -3 13 0 20 9 20 8 0 14 -9 14
-20z m100 16 c0 -2 -7 -6 -15 -10 -8 -3 -15 -1 -15 4 0 6 7 10 15 10 8 0 15
-2 15 -4z m90 -4 c0 -4 -11 -9 -25 -10 -14 -1 -25 3 -25 8 0 6 11 10 25 10 14
0 25 -4 25 -8z m-2623 -8 c-3 -3 -12 -4 -19 -1 -8 3 -5 6 6 6 11 1 17 -2 13
-5z m3319 -17 c4 -4 -14 -7 -40 -7 -26 0 -45 4 -42 8 6 10 72 9 82 -1z m3734
-2 c0 -8 -12 -12 -30 -11 -16 0 -30 6 -30 13 0 7 13 11 30 11 17 -1 30 -7 30
-13z m-4530 -3 c0 -4 -9 -8 -20 -9 -11 -1 -20 2 -20 8 0 5 9 9 20 9 11 0 20
-4 20 -8z m55 -2 c-3 -5 1 -10 9 -10 9 0 16 5 16 10 0 6 17 10 38 9 30 0 33
-2 17 -9 -13 -6 7 -9 62 -9 45 -1 85 -5 88 -11 4 -6 -47 -10 -144 -10 -94 0
-151 -4 -151 -10 0 -5 -9 -10 -20 -10 -36 0 -21 17 25 29 25 6 45 16 45 21 0
6 5 10 11 10 5 0 7 -4 4 -10z m265 0 c0 -5 -4 -10 -10 -10 -5 0 -10 5 -10 10
0 6 5 10 10 10 6 0 10 -4 10 -10z m40 -2 c0 -4 -7 -8 -15 -8 -8 0 -15 4 -15 8
0 5 7 9 15 9 8 0 15 -4 15 -9z m40 2 c0 -5 -7 -10 -15 -10 -8 0 -15 5 -15 10
0 6 7 10 15 10 8 0 15 -4 15 -10z m70 0 c0 -5 -4 -10 -10 -10 -5 0 -10 5 -10
10 0 6 5 10 10 10 6 0 10 -4 10 -10z m427 4 c-3 -3 -12 -4 -19 -1 -8 3 -5 6 6
6 11 1 17 -2 13 -5z m66 -1 c-7 -2 -21 -2 -30 0 -10 3 -4 5 12 5 17 0 24 -2
18 -5z m1027 -18 c0 -7 -13 -15 -29 -17 -22 -3 -28 -1 -26 11 2 9 4 19 4 22 2
12 51 -4 51 -16z m2584 19 c17 -7 22 -34 6 -34 -5 0 -10 6 -10 14 0 8 -6 17
-12 19 -7 3 -10 6 -6 6 3 1 13 -2 22 -5z m83 -26 c-3 -8 -6 -5 -6 6 -1 11 2
17 5 13 3 -3 4 -12 1 -19z m-5304 -10 c4 -15 -1 -18 -39 -18 -47 0 -47 0 -38
24 9 23 71 18 77 -6z m1712 12 c3 -5 -1 -10 -9 -10 -9 0 -16 5 -16 10 0 6 4
10 9 10 6 0 13 -4 16 -10z m-267 -5 c-9 -10 -88 -13 -88 -4 0 5 21 9 47 9 25
0 44 -2 41 -5z m72 -5 c0 -5 -2 -10 -4 -10 -3 0 -8 5 -11 10 -3 6 -1 10 4 10
6 0 11 -4 11 -10z m40 0 c0 -5 -2 -10 -4 -10 -3 0 -8 5 -11 10 -3 6 -1 10 4
10 6 0 11 -4 11 -10z m40 6 c0 -11 -19 -15 -25 -6 -3 5 1 10 9 10 9 0 16 -2
16 -4z m-630 -21 c0 -8 -4 -15 -10 -15 -5 0 -10 7 -10 15 0 8 5 15 10 15 6 0
10 -7 10 -15z m164 6 c15 -1 1 -11 -23 -16 -13 -2 -21 1 -21 10 0 7 8 12 18
10 9 -2 21 -4 26 -4z m136 -17 c0 -8 -9 -14 -20 -14 -13 0 -20 7 -20 19 0 14
5 18 20 14 11 -3 20 -12 20 -19z m30 2 c0 -8 -4 -18 -10 -21 -5 -3 -10 3 -10
14 0 12 5 21 10 21 6 0 10 -6 10 -14z m1323 -1 c0 -6 -7 -11 -16 -13 -12 -3
-15 1 -11 13 7 17 25 17 27 0z m2697 -4 c0 -5 -20 -9 -45 -9 -25 1 -45 4 -45
8 0 3 20 7 45 9 25 1 45 -2 45 -8z m-5430 -30 c0 -13 -2 -13 -9 -2 -7 11 -9
11 -13 0 -3 -8 -9 -11 -13 -7 -4 4 -5 14 -2 22 8 20 37 9 37 -13z m940 14 c0
-6 -13 -12 -30 -13 -21 -2 -30 2 -30 13 0 11 9 15 30 13 17 -1 30 -7 30 -13z
m107 2 c3 -4 2 -7 -3 -8 -79 -7 -94 -6 -94 6 0 10 12 13 45 11 25 -1 48 -6 52
-9z m433 3 c0 -5 -2 -10 -4 -10 -3 0 -8 5 -11 10 -3 6 -1 10 4 10 6 0 11 -4
11 -10z m130 0 c0 -5 -9 -10 -20 -10 -11 0 -20 5 -20 10 0 6 9 10 20 10 11 0
20 -4 20 -10z m130 -2 c0 -5 -20 -8 -45 -8 -25 0 -45 4 -45 8 0 5 20 8 45 8
25 -1 45 -4 45 -8z m-663 -20 c-3 -8 -6 -5 -6 6 -1 11 2 17 5 13 3 -3 4 -12 1
-19z m45 7 c5 -6 8 -6 8 1 0 6 20 12 45 12 34 2 45 -1 45 -13 0 -12 -14 -15
-65 -15 -51 0 -65 3 -65 15 0 16 20 16 32 0z m-2498 -1 c-7 -3 -10 -14 -7 -24
6 -22 -12 -28 -20 -6 -6 15 11 36 28 35 6 0 5 -2 -1 -5z m4110 -14 c-10 -4
-25 -5 -32 -2 -22 8 6 21 31 14 20 -5 20 -6 1 -12z m-1384 -6 c0 -6 -22 -12
-50 -13 -46 -1 -60 6 -44 22 11 10 94 3 94 -9z m2684 4 c10 -30 16 -148 8
-148 -7 0 -57 95 -80 152 -2 4 13 8 32 8 21 0 38 -6 40 -12z m1393 -1 c-2 -7
-18 -11 -40 -9 -19 2 -45 -1 -55 -7 -17 -9 -19 -8 -15 8 4 16 14 20 60 20 37
0 53 -4 50 -12z m-3887 -7 c0 -5 -9 -10 -20 -10 -11 0 -20 5 -20 10 0 6 9 10
20 10 11 0 20 -4 20 -10z m76 3 c-10 -11 -36 -12 -36 -2 0 5 10 9 22 9 12 0
18 -3 14 -7z m104 -3 c0 -5 -4 -10 -10 -10 -5 0 -10 5 -10 10 0 6 5 10 10 10
6 0 10 -4 10 -10z m-930 -16 c0 -8 -5 -12 -10 -9 -6 4 -8 11 -5 16 9 14 15 11
15 -7z m350 0 c0 -7 -16 -12 -37 -12 -41 0 -56 5 -49 16 7 12 86 8 86 -4z m83
7 c9 -1 17 -5 17 -9 0 -9 -57 -15 -71 -7 -14 10 -1 24 19 20 9 -2 25 -4 35 -4z
m-403 -11 c0 -5 -4 -10 -10 -10 -5 0 -10 5 -10 10 0 6 5 10 10 10 6 0 10 -4
10 -10z m50 0 c0 -5 -2 -10 -4 -10 -3 0 -8 5 -11 10 -3 6 -1 10 4 10 6 0 11
-4 11 -10z m1860 -7 c0 -15 -2 -16 -10 -3 -8 12 -10 10 -10 -9 0 -28 -12 -21
-17 9 -2 14 3 20 17 20 12 0 20 -7 20 -17z m2630 -3 c0 -5 -4 -10 -10 -10 -5
0 -10 5 -10 10 0 6 5 10 10 10 6 0 10 -4 10 -10z m-6710 -26 c0 -20 -7 -17
-20 6 -9 16 -8 18 5 14 8 -4 15 -12 15 -20z m2626 11 c-3 -9 0 -15 9 -15 18 0
20 -16 3 -23 -7 -3 11 -6 40 -6 31 -1 52 -5 52 -12 0 -7 -11 -9 -27 -6 -16 2
-37 1 -48 -3 l-20 -9 20 -1 c11 -2 26 -2 33 -1 6 1 12 -3 12 -9 0 -5 -14 -10
-32 -10 -54 0 -23 -11 35 -12 l55 -1 7 -63 c11 -109 19 -104 -168 -104 -89 0
-167 4 -173 8 -6 4 -11 45 -12 92 -2 47 -5 93 -8 102 -8 25 18 33 96 30 65 -3
71 -6 67 -23 -3 -10 -1 -19 4 -19 5 0 9 10 9 23 0 17 2 19 9 8 5 -8 7 -21 4
-30 -3 -13 -2 -12 7 1 6 10 10 28 9 40 -3 39 1 58 12 58 6 0 9 -7 5 -15z m44
11 c0 -2 -7 -6 -15 -10 -8 -3 -15 -1 -15 4 0 6 7 10 15 10 8 0 15 -2 15 -4z
m66 -5 c-5 -8 -56 -3 -56 5 0 2 14 4 31 4 16 0 28 -4 25 -9z m34 5 c0 -3 -4
-8 -10 -11 -5 -3 -10 -1 -10 4 0 6 5 11 10 11 6 0 10 -2 10 -4z m60 -6 c0 -5
-7 -10 -16 -10 -8 0 -12 5 -9 10 3 6 10 10 16 10 5 0 9 -4 9 -10z m35 0 c-3
-5 -10 -10 -16 -10 -5 0 -9 5 -9 10 0 6 7 10 16 10 8 0 12 -4 9 -10z m75 0 c0
-5 -2 -10 -4 -10 -3 0 -8 5 -11 10 -3 6 -1 10 4 10 6 0 11 -4 11 -10z m50 0
c0 -5 -4 -10 -10 -10 -5 0 -10 5 -10 10 0 6 5 10 10 10 6 0 10 -4 10 -10z
m105 0 c-3 -5 -17 -10 -31 -10 -13 0 -24 5 -24 10 0 6 14 10 31 10 17 0 28 -4
24 -10z m-875 -14 c0 -3 -4 -8 -10 -11 -5 -3 -10 -1 -10 4 0 6 5 11 10 11 6 0
10 -2 10 -4z m30 -6 c0 -5 -4 -10 -10 -10 -5 0 -10 5 -10 10 0 6 5 10 10 10 6
0 10 -4 10 -10z m50 0 c0 -5 -4 -10 -10 -10 -5 0 -10 5 -10 10 0 6 5 10 10 10
6 0 10 -4 10 -10z m90 0 c0 -5 -4 -10 -10 -10 -5 0 -10 5 -10 10 0 6 5 10 10
10 6 0 10 -4 10 -10z m50 0 c0 -5 -5 -10 -11 -10 -5 0 -7 5 -4 10 3 6 8 10 11
10 2 0 4 -4 4 -10z m150 -3 c0 -18 -131 -18 -137 1 -4 9 14 12 66 12 52 0 71
-3 71 -13z m-490 -7 c0 -5 -4 -10 -10 -10 -5 0 -10 5 -10 10 0 6 5 10 10 10 6
0 10 -4 10 -10z m640 1 c0 -8 -70 -4 -79 4 -2 3 14 5 37 5 23 0 42 -4 42 -9z
m363 -22 c-6 -6 -7 -26 -2 -52 4 -23 9 -82 11 -132 2 -65 7 -93 18 -102 10 -9
11 -12 3 -13 -20 0 -15 -20 5 -20 16 -1 16 -1 0 -14 -25 -19 -23 -46 2 -39 14
4 20 0 20 -11 0 -9 -6 -13 -14 -10 -8 3 -17 1 -20 -4 -3 -5 6 -9 19 -9 18 0
25 5 25 18 0 21 16 26 23 7 3 -7 6 -3 6 10 1 12 6 22 12 22 7 0 10 -17 7 -45
-3 -39 -1 -45 16 -45 10 0 25 8 32 18 13 16 13 16 14 0 0 -10 5 -18 10 -18 6
0 11 8 11 18 1 16 2 16 6 0 3 -11 14 -18 29 -18 13 0 27 0 32 0 4 0 8 5 8 10
1 6 2 16 3 23 1 9 4 8 10 -2 5 -8 7 -20 4 -28 -3 -7 -1 -13 5 -13 6 0 12 5 14
12 3 7 9 8 18 3 15 -10 144 -10 159 -1 16 10 25 -35 10 -46 -8 -5 -121 -7
-271 -5 -211 4 -258 2 -262 -9 -7 -18 3 -44 18 -44 6 0 4 -5 -4 -11 -11 -8
-12 -12 -2 -16 17 -7 15 -23 -3 -23 -8 0 -15 -4 -15 -10 0 -6 5 -9 12 -7 11 2
17 -19 32 -105 4 -21 11 -38 17 -38 5 0 9 6 8 13 -3 24 1 37 12 37 5 0 7 -4 4
-10 -3 -5 -1 -10 4 -10 6 0 11 -9 11 -20 0 -15 -7 -20 -27 -21 -16 0 -22 -3
-15 -6 6 -2 10 -9 6 -14 -3 -5 0 -9 5 -9 6 0 11 5 11 10 0 6 5 10 12 10 6 0 9
-3 5 -6 -12 -12 15 -63 36 -67 17 -3 15 -5 -8 -6 -16 0 -49 6 -73 16 l-43 16
1 61 c1 34 1 79 0 101 -1 38 -1 39 -14 17 -30 -56 -43 30 -45 305 l-1 111 -90
1 c-50 0 -95 3 -101 6 -6 5 -8 42 -5 103 6 118 4 110 16 92 5 -8 7 -22 5 -30
-4 -13 11 -15 100 -15 102 0 105 1 105 23 0 15 6 22 20 22 11 0 20 5 20 10 0
6 -4 10 -10 10 -17 0 -11 18 8 23 23 5 39 -10 25 -24z m3667 16 c0 -17 -2 -18
-24 -9 -23 9 -20 24 4 24 11 0 20 -7 20 -15z m-3860 -5 c0 -5 -9 -10 -20 -10
-11 0 -20 5 -20 10 0 6 9 10 20 10 11 0 20 -4 20 -10z m60 0 c0 -5 -9 -10 -20
-10 -11 0 -20 5 -20 10 0 6 9 10 20 10 11 0 20 -4 20 -10z m70 0 c0 -5 -11
-10 -25 -10 -14 0 -25 5 -25 10 0 6 11 10 25 10 14 0 25 -4 25 -10z m-3233 -6
c-3 -3 -12 -4 -19 -1 -8 3 -5 6 6 6 11 1 17 -2 13 -5z m2953 -14 c0 -5 -4 -10
-10 -10 -5 0 -10 5 -10 10 0 6 5 10 10 10 6 0 10 -4 10 -10z m-610 -10 c0 -5
-2 -10 -4 -10 -3 0 -8 5 -11 10 -3 6 -1 10 4 10 6 0 11 -4 11 -10z m30 0 c0
-5 -5 -10 -11 -10 -5 0 -7 5 -4 10 3 6 8 10 11 10 2 0 4 -4 4 -10z m60 0 c0
-5 -4 -10 -10 -10 -5 0 -10 5 -10 10 0 6 5 10 10 10 6 0 10 -4 10 -10z m-2473
-6 c-3 -3 -12 -4 -19 -1 -8 3 -5 6 6 6 11 1 17 -2 13 -5z m53 -4 c0 -5 -4 -10
-9 -10 -6 0 -13 5 -16 10 -3 6 1 10 9 10 9 0 16 -4 16 -10z m2280 0 c0 -5 -7
-10 -15 -10 -8 0 -15 5 -15 10 0 6 7 10 15 10 8 0 15 -4 15 -10z m901 0 c5 0
9 -4 9 -10 0 -5 -11 -10 -25 -10 -16 0 -25 6 -25 16 0 11 5 14 16 10 9 -3 20
-6 25 -6z m-61 -10 c0 -5 -20 -10 -45 -10 -25 0 -45 5 -45 10 0 6 20 10 45 10
25 0 45 -4 45 -10z m-1295 -10 c3 -5 -1 -10 -10 -10 -9 0 -13 5 -10 10 3 6 8
10 10 10 2 0 7 -4 10 -10z m2512 -22 c-3 -7 -5 -2 -5 12 0 14 2 19 5 13 2 -7
2 -19 0 -25z m-4337 12 c0 -5 -8 -10 -17 -10 -15 0 -16 2 -3 10 19 12 20 12
20 0z m4476 -21 c-3 -17 -6 -38 -6 -47 0 -8 -3 -12 -7 -9 -3 4 -6 23 -5 42 1
46 0 45 13 45 8 0 9 -11 5 -31z m-4499 -12 c-1 -5 -6 -8 -10 -8 -4 1 -16 1
-28 1 -11 0 -18 3 -16 8 7 10 58 9 54 -1z m828 3 c3 -5 1 -10 -4 -10 -6 0 -11
5 -11 10 0 6 2 10 4 10 3 0 8 -4 11 -10z m2930 0 c3 -5 1 -10 -4 -10 -6 0 -11
5 -11 10 0 6 2 10 4 10 3 0 8 -4 11 -10z m-1235 -36 c0 -2 -13 -4 -30 -4 -16
0 -30 4 -30 8 0 5 14 7 30 4 17 -2 30 -6 30 -8z m-2730 -4 c0 -5 -4 -10 -10
-10 -5 0 -10 5 -10 10 0 6 5 10 10 10 6 0 10 -4 10 -10z m25 0 c3 -5 1 -10 -4
-10 -6 0 -11 5 -11 10 0 6 2 10 4 10 3 0 8 -4 11 -10z m215 0 c0 -5 -4 -10
-10 -10 -5 0 -10 5 -10 10 0 6 5 10 10 10 6 0 10 -4 10 -10z m3742 -45 c4 -25
12 -66 17 -92 11 -53 14 -147 6 -155 -3 -3 -17 -3 -31 0 -21 4 -24 9 -20 28 5
19 3 22 -11 17 -12 -5 -15 -2 -10 10 3 9 2 17 -3 17 -6 0 -10 -7 -10 -15 0 -8
-4 -15 -10 -15 -5 0 -10 9 -10 20 0 11 7 20 15 20 8 0 15 7 15 15 0 23 18 18
23 -7 2 -13 5 -2 6 25 1 31 -3 47 -11 48 -7 1 -80 1 -163 0 -82 -1 -156 2
-164 7 -8 6 -11 17 -6 31 7 21 10 22 176 19 158 -3 170 -2 165 14 -2 10 0 20
4 23 4 3 6 15 3 28 -3 12 -2 19 2 15 5 -4 12 -28 17 -53z m-2908 27 c3 -5 3
-17 0 -28 -4 -16 -12 -19 -37 -16 -31 4 -31 4 -12 -12 16 -12 17 -15 5 -16 -9
0 -16 -10 -17 -21 -2 -21 -1 -21 13 -3 14 17 15 17 10 2 -3 -10 -1 -18 4 -18
6 0 10 12 10 27 0 39 8 24 12 -25 3 -26 12 -48 24 -57 17 -13 17 -14 2 -15
-13 0 -18 -9 -19 -32 -1 -18 -1 -36 0 -40 0 -5 -4 -8 -9 -8 -5 0 -10 7 -10 15
0 20 -15 19 -35 -1 -21 -21 -7 -31 37 -28 18 2 41 1 51 -2 28 -9 20 -24 -13
-24 -23 0 -30 -4 -30 -20 0 -11 6 -20 13 -21 6 0 -15 -7 -48 -14 -33 -7 -72
-16 -87 -20 l-28 -7 0 73 c0 61 7 93 40 184 22 61 43 116 45 123 5 13 71 17
79 4z m1476 -2 c0 -5 -4 -10 -10 -10 -5 0 -10 5 -10 10 0 6 5 10 10 10 6 0 10
-4 10 -10z m30 0 c0 -5 -4 -10 -10 -10 -5 0 -10 5 -10 10 0 6 5 10 10 10 6 0
10 -4 10 -10z m180 -21 c0 -5 -7 -9 -15 -9 -15 0 -20 12 -9 23 8 8 24 -1 24
-14z m1931 -22 c-8 -8 -11 -5 -11 9 0 27 14 41 18 19 2 -9 -1 -22 -7 -28z
m-4741 29 c0 -3 -4 -8 -10 -11 -5 -3 -10 -1 -10 4 0 6 5 11 10 11 6 0 10 -2
10 -4z m60 0 c0 -3 -4 -8 -10 -11 -5 -3 -10 -1 -10 4 0 6 5 11 10 11 6 0 10
-2 10 -4z m70 -6 c0 -5 -4 -10 -10 -10 -5 0 -10 5 -10 10 0 6 5 10 10 10 6 0
10 -4 10 -10z m100 0 c0 -5 -2 -10 -4 -10 -3 0 -8 5 -11 10 -3 6 -1 10 4 10 6
0 11 -4 11 -10z m70 6 c0 -3 -4 -8 -10 -11 -5 -3 -10 -1 -10 4 0 6 5 11 10 11
6 0 10 -2 10 -4z m2450 -4 c0 -5 -7 -9 -15 -9 -8 0 -15 4 -15 9 0 4 7 8 15 8
8 0 15 -4 15 -8z m1940 -52 c0 -26 -5 -40 -13 -40 -9 0 -11 12 -9 40 2 22 8
40 13 40 5 0 9 -18 9 -40z m-4424 3 c-10 -10 -19 5 -10 18 6 11 8 11 12 0 2
-7 1 -15 -2 -18z m2344 -2 c0 -15 -16 -22 -35 -15 -13 5 -14 8 -3 15 18 12 38
11 38 0z m37 -13 c-3 -8 -6 -5 -6 6 -1 11 2 17 5 13 3 -3 4 -12 1 -19z m88 13
c3 -5 1 -13 -5 -16 -12 -8 -70 3 -70 13 0 11 68 13 75 3z m2015 2 c0 -5 -5
-15 -10 -23 -8 -12 -10 -11 -10 8 0 12 5 22 10 22 6 0 10 -3 10 -7z m-100 -13
c0 -5 -4 -10 -10 -10 -5 0 -10 5 -10 10 0 6 5 10 10 10 6 0 10 -4 10 -10z
m-4665 -10 c3 -5 -1 -10 -10 -10 -9 0 -13 5 -10 10 3 6 8 10 10 10 2 0 7 -4
10 -10z m45 0 c0 -5 -7 -10 -16 -10 -8 0 -12 5 -9 10 3 6 10 10 16 10 5 0 9
-4 9 -10z m90 0 c0 -5 -5 -10 -11 -10 -5 0 -7 5 -4 10 3 6 8 10 11 10 2 0 4
-4 4 -10z m45 0 c3 -5 -1 -10 -10 -10 -9 0 -13 5 -10 10 3 6 8 10 10 10 2 0 7
-4 10 -10z m2733 -8 c2 -7 -6 -12 -17 -12 -21 0 -27 11 -14 24 9 9 26 2 31
-12z m-174 -14 c9 -9 12 -26 8 -52 -4 -28 -2 -37 7 -32 6 4 9 11 6 16 -7 12
12 23 25 15 8 -5 7 -11 -1 -21 -9 -11 -7 -14 15 -14 22 0 26 4 26 30 0 23 -4
30 -20 30 -11 0 -20 5 -20 11 0 7 10 9 25 7 14 -3 25 0 26 6 0 6 7 -6 14 -27
8 -21 12 -44 9 -52 -4 -10 0 -15 11 -15 30 0 9 -25 -23 -28 -19 -2 -30 -8 -26
-13 4 -7 -7 -8 -28 -5 -18 3 -81 8 -140 12 -83 4 -108 9 -108 20 0 9 12 14 33
15 59 2 120 9 126 14 3 3 6 23 7 43 3 60 4 62 28 40z m1926 2 c0 -5 -4 -10
-10 -10 -5 0 -10 5 -10 10 0 6 5 10 10 10 6 0 10 -4 10 -10z m-4410 -16 c0 -8
-5 -12 -10 -9 -6 4 -8 11 -5 16 9 14 15 11 15 -7z m60 1 c0 -8 -4 -15 -10 -15
-5 0 -10 7 -10 15 0 8 5 15 10 15 6 0 10 -7 10 -15z m2698 3 c-6 -17 -35 -18
-49 -2 -9 12 -6 14 21 14 20 0 30 -4 28 -12z m-2728 -2 c0 -3 -4 -8 -10 -11
-5 -3 -10 -1 -10 4 0 6 5 11 10 11 6 0 10 -2 10 -4z m4446 -16 c0 -15 -7 -20
-28 -20 -21 0 -28 5 -28 20 0 15 7 20 28 20 21 0 28 -5 28 -20z m-2376 0 c0
-5 -4 -10 -10 -10 -5 0 -10 5 -10 10 0 6 5 10 10 10 6 0 10 -4 10 -10z m2280
-6 c0 -8 5 -12 10 -9 6 4 8 11 5 16 -4 5 -1 9 4 9 7 0 11 -24 12 -57 0 -32 2
-68 5 -80 3 -20 0 -23 -30 -23 -19 0 -38 -4 -41 -10 -15 -24 -21 -6 -14 41 10
63 19 75 19 26 0 -20 3 -38 8 -40 4 -3 5 15 3 40 -2 31 1 48 10 54 8 5 9 9 4
9 -6 0 -11 9 -11 20 0 11 4 20 8 20 4 0 8 -7 8 -16z m-846 -36 c4 -24 3 -38
-4 -38 -5 0 -10 19 -10 42 0 49 5 47 14 -4z m-3774 16 c0 -8 -5 -12 -10 -9 -6
4 -8 11 -5 16 9 14 15 11 15 -7z m53 1 c-4 -14 -33 -14 -33 0 0 7 8 12 18 11
9 -2 16 -7 15 -11z m52 5 c3 -5 1 -10 -4 -10 -6 0 -11 5 -11 10 0 6 2 10 4 10
3 0 8 -4 11 -10z m3602 -12 c-3 -8 -6 -5 -6 6 -1 11 2 17 5 13 3 -3 4 -12 1
-19z m-1502 2 c3 -5 1 -19 -5 -30 -6 -11 -7 -20 -2 -20 6 0 -3 -78 -17 -140
-1 -3 -5 2 -11 10 -5 8 -13 11 -17 6 -4 -4 1 -14 11 -22 16 -11 17 -14 4 -14
-9 0 -23 15 -32 34 -20 43 -20 53 2 59 13 4 11 5 -5 6 -28 1 -31 20 -3 20 11
1 29 1 40 2 11 0 20 7 20 14 0 9 -6 12 -15 9 -9 -4 -15 0 -15 9 0 8 7 18 16
21 24 9 7 25 -21 20 -28 -5 -35 12 -7 18 35 7 52 7 57 -2z m80 0 c3 -5 1 -10
-4 -10 -6 0 -11 5 -11 10 0 6 2 10 4 10 3 0 8 -4 11 -10z m785 0 c0 -5 -4 -10
-10 -10 -5 0 -10 5 -10 10 0 6 5 10 10 10 6 0 10 -4 10 -10z m817 -22 c-3 -7
-5 -2 -5 12 0 14 2 19 5 13 2 -7 2 -19 0 -25z m-1272 12 c3 -5 1 -10 -4 -10
-6 0 -11 5 -11 10 0 6 2 10 4 10 3 0 8 -4 11 -10z m1205 -20 c0 -16 -4 -30
-10 -30 -5 0 -8 13 -7 30 3 39 17 39 17 0z m110 8 c0 -13 3 -33 6 -45 5 -17 2
-23 -10 -23 -14 0 -16 9 -15 45 3 45 19 65 19 23z m785 12 c3 -5 -1 -10 -9
-10 -9 0 -16 -4 -16 -10 0 -5 4 -9 9 -7 5 1 9 -1 10 -5 1 -5 -2 -9 -6 -10 -5
0 -13 -8 -20 -17 -11 -14 -12 -14 -13 4 0 11 -3 30 -6 43 -5 19 -2 22 19 22
14 0 29 -4 32 -10z m-2348 -55 c-8 -46 -67 -195 -78 -195 -5 0 -13 9 -19 19
-7 15 -5 31 10 65 10 25 22 62 26 83 6 39 27 63 52 63 11 0 13 -9 9 -35z
m-100 3 c-3 -8 -6 -5 -6 6 -1 11 2 17 5 13 3 -3 4 -12 1 -19z m2265 -10 c-8
-8 -9 -4 -5 13 4 13 8 18 11 10 2 -7 -1 -18 -6 -23z m-2387 12 c-3 -5 -13 -10
-21 -10 -8 0 -14 5 -14 10 0 6 9 10 21 10 11 0 17 -4 14 -10z m1565 -10 c0 -5
-4 -10 -10 -10 -5 0 -10 5 -10 10 0 6 5 10 10 10 6 0 10 -4 10 -10z m190 -10
c0 -5 -7 -10 -15 -10 -8 0 -15 5 -15 10 0 6 7 10 15 10 8 0 15 -4 15 -10z m70
0 c0 -5 -4 -10 -10 -10 -5 0 -10 5 -10 10 0 6 5 10 10 10 6 0 10 -4 10 -10z
m-1110 -10 c0 -5 -4 -10 -10 -10 -5 0 -10 5 -10 10 0 6 5 10 10 10 6 0 10 -4
10 -10z m-296 -6 c28 -11 17 -30 -19 -32 -25 -2 -35 2 -35 12 0 21 26 31 54
20z m76 -13 c0 -14 -6 -17 -25 -13 -31 5 -32 19 -2 25 12 2 23 5 25 6 1 0 2
-7 2 -18z m85 -1 c0 -11 -9 -14 -35 -12 -39 4 -44 7 -37 19 10 16 72 10 72 -7z
m1092 4 c-3 -3 -12 -4 -19 -1 -8 3 -5 6 6 6 11 1 17 -2 13 -5z m-1017 -14 c0
-5 -2 -10 -4 -10 -3 0 -8 5 -11 10 -3 6 -1 10 4 10 6 0 11 -4 11 -10z m60 0
c0 -5 -4 -10 -10 -10 -5 0 -10 5 -10 10 0 6 5 10 10 10 6 0 10 -4 10 -10z m0
-24 c0 -3 -4 -8 -10 -11 -5 -3 -10 -1 -10 4 0 6 5 11 10 11 6 0 10 -2 10 -4z
m-2780 -16 c0 -5 -7 -10 -15 -10 -8 0 -15 5 -15 10 0 6 7 10 15 10 8 0 15 -4
15 -10z m2618 1 c6 -1 12 -5 12 -10 0 -4 -27 -9 -60 -10 -44 -1 -60 2 -60 12
0 9 14 12 48 10 26 -1 53 -2 60 -2z m332 -1 c0 -5 -5 -10 -11 -10 -5 0 -7 5
-4 10 3 6 8 10 11 10 2 0 4 -4 4 -10z m1367 -12 c-3 -8 -6 -5 -6 6 -1 11 2 17
5 13 3 -3 4 -12 1 -19z m-1617 2 c0 -5 -9 -10 -20 -10 -11 0 -20 5 -20 10 0 6
9 10 20 10 11 0 20 -4 20 -10z m1677 -22 c-3 -8 -6 -5 -6 6 -1 11 2 17 5 13 3
-3 4 -12 1 -19z m-4377 -8 c0 -5 -7 -10 -15 -10 -8 0 -15 5 -15 10 0 6 7 10
15 10 8 0 15 -4 15 -10z m2980 2 c0 -4 -18 -8 -40 -9 -22 -1 -40 2 -40 8 0 5
18 9 40 9 22 0 40 -4 40 -8z m40 -2 c0 -5 -4 -10 -10 -10 -5 0 -10 5 -10 10 0
6 5 10 10 10 6 0 10 -4 10 -10z m40 0 c0 -5 -7 -10 -15 -10 -8 0 -15 5 -15 10
0 6 7 10 15 10 8 0 15 -4 15 -10z m30 0 c0 -5 -2 -10 -4 -10 -3 0 -8 5 -11 10
-3 6 -1 10 4 10 6 0 11 -4 11 -10z m248 0 c23 -1 25 -2 9 -11 -9 -5 -23 -7
-30 -3 -8 6 -8 3 1 -8 8 -9 20 -14 28 -11 8 3 14 -1 14 -11 0 -9 -7 -16 -16
-16 -14 0 -14 -2 0 -15 8 -8 19 -15 24 -15 5 0 10 -36 11 -80 1 -44 -1 -80 -3
-80 -3 0 -30 12 -60 27 -41 20 -55 33 -59 53 -4 16 -12 27 -22 27 -10 0 -14
-6 -10 -16 4 -14 4 -14 -7 -1 -7 8 -19 15 -25 15 -7 0 -13 5 -13 10 0 6 17 10
38 10 37 0 37 0 38 41 0 23 4 48 7 57 4 10 1 17 -6 18 -7 0 -3 4 8 9 11 5 26
7 33 4 8 -2 26 -4 40 -4z m-1317 -14 c-1 -16 -31 -15 -31 1 0 8 7 13 16 11 8
-2 15 -7 15 -12z m507 5 c46 -2 40 -21 -8 -21 -22 0 -40 -4 -40 -10 0 -5 20
-10 45 -10 59 0 58 -17 -1 -22 -41 -3 -47 -1 -55 20 -5 13 -13 21 -17 18 -4
-2 -14 0 -22 5 -20 12 0 25 37 23 16 -1 43 -2 61 -3z m1802 -51 c5 0 11 10 13
23 2 12 5 -5 6 -37 0 -33 3 -57 6 -55 5 5 13 43 14 67 1 15 25 11 27 -4 0 -5
3 -16 7 -24 8 -19 10 -37 8 -79 -1 -25 -5 -32 -16 -27 -8 3 -14 2 -14 -2 3
-18 -2 -32 -11 -32 -5 0 -11 8 -11 18 -1 9 -4 4 -8 -13 -7 -29 -8 -29 -20 20
-8 28 -15 86 -16 130 -2 44 -1 65 2 48 2 -18 8 -33 13 -33z m55 40 c3 -5 1
-10 -4 -10 -6 0 -11 5 -11 10 0 6 2 10 4 10 3 0 8 -4 11 -10z m-4460 -9 c3 -5
1 -12 -5 -16 -5 -3 -10 1 -10 9 0 18 6 21 15 7z m78 -16 c1 -5 -6 -11 -15 -13
-11 -2 -18 3 -18 13 0 17 30 18 33 0z m192 5 c3 -5 -1 -10 -9 -10 -9 0 -16 5
-16 10 0 6 4 10 9 10 6 0 13 -4 16 -10z m2525 0 c0 -5 -5 -10 -11 -10 -5 0 -7
5 -4 10 3 6 8 10 11 10 2 0 4 -4 4 -10z m55 0 c3 -5 1 -10 -4 -10 -6 0 -11 5
-11 10 0 6 2 10 4 10 3 0 8 -4 11 -10z m95 -6 c0 -2 -12 -4 -27 -4 -21 0 -24
3 -14 9 13 8 41 5 41 -5z m25 6 c3 -5 1 -10 -4 -10 -6 0 -11 5 -11 10 0 6 2
10 4 10 3 0 8 -4 11 -10z m35 0 c0 -5 -4 -10 -10 -10 -5 0 -10 5 -10 10 0 6 5
10 10 10 6 0 10 -4 10 -10z m88 -2 c-2 -5 -7 -9 -11 -9 -4 1 -14 1 -22 1 -8 0
-15 4 -15 9 0 5 11 9 25 9 14 0 24 -5 23 -10z m32 3 c0 -6 -4 -13 -10 -16 -5
-3 -10 1 -10 9 0 9 5 16 10 16 6 0 10 -4 10 -9z m25 -1 c3 -5 1 -10 -4 -10 -6
0 -11 5 -11 10 0 6 2 10 4 10 3 0 8 -4 11 -10z m-1060 -10 c-3 -5 -1 -10 5
-10 6 0 9 -4 5 -9 -3 -5 -1 -12 4 -15 8 -5 3 -95 -6 -106 -8 -9 -21 24 -19 51
1 16 -1 29 -6 29 -4 0 -8 7 -8 15 0 8 4 15 9 15 5 0 7 9 4 20 -3 12 0 20 6 20
7 0 9 -4 6 -10z m1225 0 c0 -5 -4 -10 -10 -10 -5 0 -10 5 -10 10 0 6 5 10 10
10 6 0 10 -4 10 -10z m710 0 c0 -5 -7 -10 -16 -10 -8 0 -12 5 -9 10 3 6 10 10
16 10 5 0 9 -4 9 -10z m-2889 -58 c0 -42 1 -44 10 -22 6 14 10 27 10 30 1 3 6
11 12 19 9 12 9 13 0 7 -7 -4 -13 -2 -13 3 0 6 7 11 15 11 8 0 18 -16 24 -37
13 -52 53 -331 49 -342 -2 -5 -19 -2 -38 6 -25 10 -55 41 -105 110 -90 123
-145 204 -145 213 0 15 155 62 173 53 4 -2 7 -25 8 -51z m886 36 c-3 -8 -6 -5
-6 6 -1 11 2 17 5 13 3 -3 4 -12 1 -19z m516 -8 c7 0 6 -4 -3 -10 -12 -8 -10
-10 10 -9 61 1 100 -4 100 -11 0 -5 -26 -7 -58 -7 -52 2 -58 0 -54 -16 4 -14
7 -15 20 -5 12 10 14 10 8 1 -7 -12 -3 -14 31 -17 7 -1 13 -6 13 -11 0 -10 -3
-11 -53 -13 -21 -2 -28 -7 -25 -19 1 -10 -1 -24 -5 -30 -5 -8 -3 -13 5 -13 8
-1 5 -7 -7 -17 -16 -13 -17 -15 -2 -10 10 4 17 1 17 -6 0 -8 4 -6 10 3 5 8 7
30 4 48 -6 32 -6 32 35 32 22 0 41 -4 41 -10 0 -5 -13 -10 -29 -10 -17 0 -33
-4 -36 -10 -6 -9 56 -15 113 -10 12 1 22 -3 22 -9 0 -12 -2 -12 -72 -15 -51
-1 -94 -26 -46 -26 33 0 46 -17 18 -22 -41 -6 -24 -23 30 -29 30 -3 51 -7 45
-9 -20 -6 -31 -8 -66 -9 l-35 -1 2 -51 c1 -28 4 -52 6 -53 1 -2 22 -6 45 -9
32 -4 43 -1 48 10 3 9 3 18 0 21 -3 3 -5 0 -5 -6 0 -7 -16 -12 -40 -12 -29 0
-40 4 -40 15 0 12 16 15 85 15 67 0 85 -3 85 -14 0 -10 -13 -16 -37 -18 -28
-2 -37 -8 -38 -23 -1 -17 4 -20 32 -19 18 1 36 -3 40 -9 3 -6 1 -7 -5 -3 -7 4
-12 2 -12 -3 0 -6 8 -11 18 -12 14 0 14 -2 -3 -9 -11 -5 -17 -9 -13 -9 3 -1
13 -4 21 -7 14 -5 15 1 20 159 1 48 15 29 22 -30 8 -76 12 -94 14 -60 1 18 7
27 19 28 14 0 14 2 -3 9 -19 8 -19 9 1 9 29 1 34 -16 28 -96 -6 -84 -11 -103
-30 -103 -10 0 -13 8 -9 31 4 19 2 28 -5 24 -5 -3 -10 -12 -10 -19 0 -8 -7
-19 -15 -26 -13 -11 -15 -7 -15 24 0 20 -5 36 -11 36 -20 0 -47 -40 -42 -60 5
-18 -1 -19 -111 -18 -64 1 -119 5 -123 11 -7 11 -5 334 2 392 3 21 10 42 16
46 6 4 3 9 -8 13 -17 7 -17 8 0 17 12 7 15 15 9 26 -6 9 -5 30 2 52 7 22 12
29 14 18 2 -9 9 -17 15 -17z m157 20 c0 -5 -7 -10 -15 -10 -8 0 -15 5 -15 10
0 6 7 10 15 10 8 0 15 -4 15 -10z m60 0 c0 -5 -7 -10 -15 -10 -8 0 -15 5 -15
10 0 6 7 10 15 10 8 0 15 -4 15 -10z m-2482 -38 c2 -15 -2 -22 -12 -22 -11 0
-16 9 -16 26 0 31 23 28 28 -4z m1922 -27 c-16 -42 -24 -22 -9 22 7 21 14 31
16 22 2 -8 -1 -28 -7 -44z m660 45 c0 -5 -4 -10 -10 -10 -5 0 -10 5 -10 10 0
6 5 10 10 10 6 0 10 -4 10 -10z m1167 -10 c-1 -11 -7 -20 -13 -20 -7 0 -10 8
-7 20 3 11 9 20 14 20 4 0 7 -9 6 -20z m-3942 0 c-3 -5 -12 -7 -20 -3 -21 7
-19 13 6 13 11 0 18 -4 14 -10z m2838 -15 c-4 -11 2 -15 20 -15 20 0 24 4 20
20 -4 14 0 20 12 20 12 0 16 -6 12 -19 -4 -17 1 -19 74 -17 44 0 79 4 79 9 0
4 -4 7 -10 7 -5 0 -10 5 -10 10 0 6 9 10 20 10 23 0 24 -1 9 -34 -7 -14 -16
-23 -22 -19 -6 3 -7 1 -3 -5 9 -15 -10 -59 -32 -71 -11 -6 -33 -12 -50 -13
-17 -1 -30 -7 -29 -13 1 -5 -22 -21 -51 -35 l-54 -25 7 -110 c7 -117 -1 -207
-16 -170 -11 28 -3 435 10 491 0 3 5 3 11 -1 5 -3 7 -12 3 -20z m152 15 c3 -5
-3 -10 -14 -10 -12 0 -21 5 -21 10 0 6 6 10 14 10 8 0 18 -4 21 -10z m225 -5
c0 -9 -6 -12 -15 -9 -8 4 -15 10 -15 15 0 5 7 9 15 9 8 0 15 -7 15 -15z m310
0 c0 -8 -4 -15 -10 -15 -5 0 -10 7 -10 15 0 8 5 15 10 15 6 0 10 -7 10 -15z
m310 11 c0 -3 -4 -8 -10 -11 -5 -3 -10 -1 -10 4 0 6 5 11 10 11 6 0 10 -2 10
-4z m607 -74 c-16 -20 -20 -6 -11 40 l8 43 6 -35 c3 -19 2 -41 -3 -48z m-1827
48 c0 -5 -4 -10 -10 -10 -5 0 -10 5 -10 10 0 6 5 10 10 10 6 0 10 -4 10 -10z
m1030 0 c0 -5 -7 -10 -15 -10 -8 0 -15 5 -15 10 0 6 7 10 15 10 8 0 15 -4 15
-10z m240 0 c0 -5 -2 -10 -4 -10 -3 0 -8 5 -11 10 -3 6 -1 10 4 10 6 0 11 -4
11 -10z m-3886 -9 c3 -4 3 -11 0 -14 -8 -8 -34 3 -34 14 0 11 27 12 34 0z m86
-1 c0 -5 -2 -10 -4 -10 -3 0 -8 5 -11 10 -3 6 -1 10 4 10 6 0 11 -4 11 -10z
m3684 -5 c3 -9 0 -15 -9 -15 -8 0 -15 7 -15 15 0 8 4 15 9 15 5 0 11 -7 15
-15z m179 -2 c-7 -2 -19 -2 -25 0 -7 3 -2 5 12 5 14 0 19 -2 13 -5z m-3524
-62 l2 -59 -45 -31 c-24 -17 -47 -31 -50 -31 -7 0 0 95 8 109 4 6 2 11 -3 11
-6 0 -11 5 -11 10 0 6 7 10 15 10 9 0 15 -9 15 -25 0 -24 19 -37 21 -15 1 6 2
15 3 21 0 7 10 15 21 20 11 4 14 8 8 8 -17 1 -17 31 0 31 10 0 14 -18 16 -59z
m3101 49 c0 -5 -4 -10 -10 -10 -5 0 -10 5 -10 10 0 6 5 10 10 10 6 0 10 -4 10
-10z m310 6 c0 -11 -19 -15 -25 -6 -3 5 1 10 9 10 9 0 16 -2 16 -4z m-2080
-16 c0 -5 -18 -10 -40 -10 -22 0 -40 5 -40 10 0 6 18 10 40 10 22 0 40 -4 40
-10z m1891 -22 c0 -18 4 -42 9 -53 7 -18 9 -17 20 13 7 17 16 32 22 32 5 0 7
-4 4 -9 -4 -5 -2 -11 4 -13 11 -4 20 -188 9 -188 -5 0 -32 9 -62 20 -49 18
-54 23 -51 48 11 118 18 157 26 161 6 2 4 7 -3 12 -11 7 -10 9 4 9 12 0 17 -8
18 -32z m67 14 c2 -7 -3 -12 -12 -12 -9 0 -16 7 -16 16 0 17 22 14 28 -4z
m180 -50 c2 -42 -1 -62 -9 -62 -8 0 -8 -4 2 -16 19 -23 29 2 25 60 -2 35 0 46
11 46 12 0 12 3 -1 16 -22 22 -21 24 19 24 l35 0 -1 -165 c0 -138 -2 -165 -14
-165 -8 0 -15 5 -15 10 0 6 -13 10 -30 10 -16 0 -39 4 -52 9 -13 5 -43 15 -68
22 -55 16 -59 21 -56 73 3 48 31 61 31 14 -1 -36 20 -44 23 -9 5 70 14 116 25
123 9 6 9 8 0 8 -7 0 -13 7 -13 15 0 8 7 15 15 15 10 0 15 -10 15 -32 0 -52
16 -66 23 -21 4 21 7 51 7 66 0 19 4 27 13 25 7 -3 13 -28 15 -66z m-3890 46
c-4 -12 -38 -21 -38 -9 0 12 12 21 28 21 7 0 12 -5 10 -12z m2352 2 c0 -5 -5
-10 -11 -10 -5 0 -7 5 -4 10 3 6 8 10 11 10 2 0 4 -4 4 -10z m1227 -6 c-3 -3
-12 -4 -19 -1 -8 3 -5 6 6 6 11 1 17 -2 13 -5z m193 -9 c0 -8 -7 -15 -15 -15
-8 0 -15 7 -15 15 0 8 7 15 15 15 8 0 15 -7 15 -15z m-3730 -4 c0 -6 -4 -13
-10 -16 -5 -3 -10 1 -10 9 0 9 5 16 10 16 6 0 10 -4 10 -9z m150 -7 c0 -17
-22 -14 -28 4 -2 7 3 12 12 12 9 0 16 -7 16 -16z m1575 -4 c8 -13 -15 -13 -35
0 -12 8 -11 10 7 10 12 0 25 -4 28 -10z m-1765 -15 c0 -8 -9 -15 -20 -15 -11
0 -20 7 -20 15 0 8 9 15 20 15 11 0 20 -7 20 -15z m2610 5 c0 -5 -9 -10 -20
-10 -11 0 -20 5 -20 10 0 6 9 10 20 10 11 0 20 -4 20 -10z m60 0 c0 -5 -4 -10
-10 -10 -5 0 -10 5 -10 10 0 6 5 10 10 10 6 0 10 -4 10 -10z m907 4 c-3 -3
-12 -4 -19 -1 -8 3 -5 6 6 6 11 1 17 -2 13 -5z m193 -14 c0 -5 -9 -10 -21 -10
-11 0 -17 5 -14 10 3 6 13 10 21 10 8 0 14 -4 14 -10z m-3582 -32 c-2 -13 -7
-23 -12 -23 -5 0 -11 10 -12 23 -3 15 1 22 12 22 10 0 14 -7 12 -22z m1612 8
c0 -11 -19 -15 -25 -6 -3 5 1 10 9 10 9 0 16 -2 16 -4z m37 -2 c-3 -3 -12 -4
-19 -1 -8 3 -5 6 6 6 11 1 17 -2 13 -5z m803 -10 c0 -8 -5 -12 -10 -9 -6 4 -8
11 -5 16 9 14 15 11 15 -7z m940 -4 c0 -11 -7 -20 -15 -20 -8 0 -15 9 -15 20
0 11 7 20 15 20 8 0 15 -9 15 -20z m-3580 1 c0 -5 -7 -12 -16 -15 -22 -9 -24
-8 -24 9 0 8 9 15 20 15 11 0 20 -4 20 -9z m2767 -22 c2 -11 -1 -18 -6 -14 -6
3 -9 14 -8 25 2 23 10 17 14 -11z m1003 16 c0 -8 -9 -15 -20 -15 -11 0 -20 7
-20 15 0 8 9 15 20 15 11 0 20 -7 20 -15z m-1970 -15 c0 -5 -7 -10 -15 -10 -8
0 -15 5 -15 10 0 6 7 10 15 10 8 0 15 -4 15 -10z m-1752 -43 c2 -28 -1 -35
-12 -31 -8 3 -13 19 -13 40 2 45 21 38 25 -9z m-53 23 c-3 -5 -13 -10 -21 -10
-8 0 -14 5 -14 10 0 6 9 10 21 10 11 0 17 -4 14 -10z m3585 0 c0 -5 -7 -10
-15 -10 -8 0 -15 5 -15 10 0 6 7 10 15 10 8 0 15 -4 15 -10z m-3390 -25 c0 -8
-7 -15 -15 -15 -16 0 -20 12 -8 23 11 12 23 8 23 -8z m-195 -5 c-3 -5 -13 -10
-21 -10 -8 0 -14 5 -14 10 0 6 9 10 21 10 11 0 17 -4 14 -10z m2719 -15 c3 -9
0 -15 -9 -15 -8 0 -15 7 -15 15 0 8 4 15 9 15 5 0 11 -7 15 -15z m-2864 -5 c0
-5 -4 -10 -10 -10 -5 0 -10 5 -10 10 0 6 5 10 10 10 6 0 10 -4 10 -10z m150
-10 c0 -5 -9 -10 -20 -10 -11 0 -20 5 -20 10 0 6 9 10 20 10 11 0 20 -4 20
-10z m137 -6 c-3 -3 -12 -4 -19 -1 -8 3 -5 6 6 6 11 1 17 -2 13 -5z m53 -30
c0 -8 -7 -14 -15 -14 -15 0 -21 21 -9 33 10 9 24 -2 24 -19z m744 -44 c32 -39
54 -75 51 -80 -3 -6 -1 -10 4 -10 6 0 11 -7 11 -15 0 -8 -6 -14 -12 -12 -8 1
-15 -14 -18 -43 -4 -38 -9 -46 -29 -48 -12 -2 -34 -1 -47 2 l-25 7 2 134 c1
74 3 135 4 135 2 0 28 -32 59 -70z m1836 46 c0 -14 -5 -28 -10 -31 -13 -8 -24
20 -16 40 9 24 26 17 26 -9z m-2723 8 c-3 -3 -12 -4 -19 -1 -8 3 -5 6 6 6 11
1 17 -2 13 -5z m91 -12 c2 -7 -3 -12 -12 -12 -9 0 -16 7 -16 16 0 17 22 14 28
-4z m2502 3 c0 -8 -6 -15 -12 -16 -101 -5 -108 -4 -108 14 0 14 10 17 60 17
47 0 60 -3 60 -15z m40 0 c0 -8 -4 -15 -10 -15 -5 0 -10 7 -10 15 0 8 5 15 10
15 6 0 10 -7 10 -15z m-880 -23 c0 -4 -11 -9 -25 -10 -14 -1 -25 3 -25 8 0 6
11 10 25 10 14 0 25 -4 25 -8z m53 -3 c-8 -8 -16 -8 -30 0 -16 9 -14 10 12 11
21 0 26 -3 18 -11z m-23 -39 c0 -5 -4 -10 -10 -10 -5 0 -10 5 -10 10 0 6 5 10
10 10 6 0 10 -4 10 -10z m-1780 -8 c0 -13 -12 -22 -22 -16 -10 6 -1 24 13 24
5 0 9 -4 9 -8z m-200 -12 c0 -5 -4 -10 -10 -10 -5 0 -10 5 -10 10 0 6 5 10 10
10 6 0 10 -4 10 -10z m142 -5 c0 -5 -5 -11 -11 -13 -6 -2 -11 4 -11 13 0 9 5
15 11 13 6 -2 11 -8 11 -13z m1808 -13 c0 -5 -7 -9 -15 -9 -8 0 -15 4 -15 9 0
4 7 8 15 8 8 0 15 -4 15 -8z m40 -2 c0 -5 -4 -10 -10 -10 -5 0 -10 5 -10 10 0
6 5 10 10 10 6 0 10 -4 10 -10z m-1990 -20 c0 -11 -7 -20 -15 -20 -15 0 -21
21 -8 33 12 13 23 7 23 -13z m200 -5 c0 -16 -6 -25 -16 -25 -14 0 -14 3 -4 15
9 10 9 15 1 15 -6 0 -11 5 -11 10 0 6 7 10 15 10 9 0 15 -9 15 -25z m-50 5 c0
-5 -9 -10 -21 -10 -11 0 -17 5 -14 10 3 6 13 10 21 10 8 0 14 -4 14 -10z m260
-10 c0 -5 -2 -10 -4 -10 -3 0 -8 5 -11 10 -3 6 -1 10 4 10 6 0 11 -4 11 -10z
m-263 -50 c-2 -23 -10 -47 -18 -55 -13 -13 -15 -10 -16 25 -1 31 2 40 15 41
15 1 15 2 -1 6 -20 5 -13 23 9 23 11 0 14 -10 11 -40z m53 16 c0 -2 -7 -9 -15
-16 -12 -10 -15 -10 -15 4 0 9 7 16 15 16 8 0 15 -2 15 -4z m200 -6 c0 -5 -2
-10 -4 -10 -3 0 -8 5 -11 10 -3 6 -1 10 4 10 6 0 11 -4 11 -10z m1520 -2 c0
-4 -16 -8 -35 -8 -19 0 -35 5 -35 10 0 6 16 10 35 8 19 -1 35 -6 35 -10z m70
2 c0 -5 -5 -10 -11 -10 -5 0 -7 5 -4 10 3 6 8 10 11 10 2 0 4 -4 4 -10z m50 0
c0 -5 -5 -10 -11 -10 -5 0 -7 5 -4 10 3 6 8 10 11 10 2 0 4 -4 4 -10z m-1967
-17 c-7 -2 -19 -2 -25 0 -7 3 -2 5 12 5 14 0 19 -2 13 -5z m337 -13 c0 -5 -7
-10 -15 -10 -8 0 -15 5 -15 10 0 6 7 10 15 10 8 0 15 -4 15 -10z m1030 6 c0
-11 -19 -15 -25 -6 -3 5 1 10 9 10 9 0 16 -2 16 -4z m-1360 -31 c0 -8 -9 -15
-20 -15 -22 0 -27 15 -7 23 21 9 27 7 27 -8z m1740 1 c0 -3 -4 -8 -10 -11 -5
-3 -10 -1 -10 4 0 6 5 11 10 11 6 0 10 -2 10 -4z m-1740 -51 c0 -8 -9 -15 -20
-15 -11 0 -20 7 -20 15 0 8 9 15 20 15 11 0 20 -7 20 -15z m7067 -11 c-3 -3
-12 -4 -19 -1 -8 3 -5 6 6 6 11 1 17 -2 13 -5z m-6737 -14 c0 -5 -4 -10 -9
-10 -6 0 -13 5 -16 10 -3 6 1 10 9 10 9 0 16 -4 16 -10z m-350 -15 c-7 -9 -15
-13 -17 -11 -7 7 7 26 19 26 6 0 6 -6 -2 -15z m350 -15 c0 -5 -4 -10 -10 -10
-5 0 -10 5 -10 10 0 6 5 10 10 10 6 0 10 -4 10 -10z m-19 -43 c-13 -13 -26 -3
-16 12 3 6 11 8 17 5 6 -4 6 -10 -1 -17z m2657 -127 c-7 -10 -14 -17 -17 -15
-4 4 18 35 25 35 2 0 -1 -9 -8 -20z m26 -8 c3 -5 -1 -9 -9 -9 -8 0 -12 4 -9 9
3 4 7 8 9 8 2 0 6 -4 9 -8z m-474 -10 c0 -5 -13 -7 -30 -4 -16 2 -30 6 -30 8
0 2 14 4 30 4 17 0 30 -4 30 -8z m293 -9 c-13 -2 -33 -2 -45 0 -13 2 -3 4 22
4 25 0 35 -2 23 -4z m-840 -53 c48 -10 87 -29 87 -41 0 -9 -167 -109 -182
-109 -19 0 -153 41 -162 51 -5 5 -3 15 5 25 19 23 170 94 189 89 8 -2 37 -9
63 -15z m862 0 c3 -6 -1 -7 -9 -4 -18 7 -21 14 -7 14 6 0 13 -4 16 -10z m42
-6 c-3 -3 -12 -4 -19 -1 -8 3 -5 6 6 6 11 1 17 -2 13 -5z m24 -37 c-8 -10 -7
-19 3 -33 14 -18 33 -19 490 -19 l475 0 66 -65 c36 -35 65 -68 65 -72 0 -8
-418 -13 -1079 -13 l-434 0 -28 95 c-16 52 -25 98 -21 102 4 4 66 9 137 11
340 8 338 8 326 -6z m2019 -1376 c0 -12 -20 -25 -27 -18 -7 7 6 27 18 27 5 0
9 -4 9 -9z m-2053 -2443 c-3 -8 -6 -5 -6 6 -1 11 2 17 5 13 3 -3 4 -12 1 -19z
m531 -5 c-10 -2 -26 -2 -35 0 -10 3 -2 5 17 5 19 0 27 -2 18 -5z"/>
<path d="M2424 7738 l-29 -33 33 29 c30 28 37 36 29 36 -2 0 -16 -15 -33 -32z"/>
<path d="M2274 7479 c-10 -12 -65 -59 -121 -106 -57 -46 -103 -86 -103 -89 0
-7 8 -4 22 9 49 45 56 49 76 38 14 -7 19 -7 19 4 0 7 -7 11 -16 8 -9 -3 -2 8
14 22 81 74 111 103 124 118 19 24 8 21 -15 -4z"/>
<path d="M1580 6825 c0 -14 5 -25 11 -25 5 0 8 4 4 9 -3 5 -1 12 5 16 12 7 4
25 -11 25 -5 0 -9 -11 -9 -25z"/>
<path d="M1650 6815 c0 -14 2 -25 4 -25 2 0 6 11 8 25 3 14 1 25 -3 25 -5 0
-9 -11 -9 -25z"/>
<path d="M1730 6748 c0 -25 3 -29 10 -18 13 20 13 50 0 50 -5 0 -10 -15 -10
-32z"/>
<path d="M1725 6630 c3 -5 8 -10 11 -10 2 0 4 5 4 10 0 6 -5 10 -11 10 -5 0
-7 -4 -4 -10z"/>
<path d="M1719 6593 c-13 -15 -12 -15 9 -4 23 12 28 21 13 21 -5 0 -15 -7 -22
-17z"/>
<path d="M1728 6475 c-2 -25 0 -53 4 -63 5 -12 7 -8 7 13 1 17 5 45 10 63 7
25 7 32 -4 32 -8 0 -14 -16 -17 -45z"/>
<path d="M2220 6039 c0 -11 4 -18 10 -14 5 3 7 12 3 20 -7 21 -13 19 -13 -6z"/>
<path d="M2260 6030 c-9 -6 -10 -10 -3 -10 6 0 15 5 18 10 8 12 4 12 -15 0z"/>
<path d="M2425 5980 c-2 -4 14 -7 36 -8 21 -2 39 1 39 6 0 9 -70 11 -75 2z"/>
<path d="M2533 5979 c-15 -6 -14 -8 7 -8 14 0 32 4 40 9 12 7 10 9 -7 7 -12 0
-30 -4 -40 -8z"/>
<path d="M2457 5934 c-3 -3 -34 -7 -69 -9 -88 -4 -97 -6 -63 -15 54 -14 211
-11 240 4 l27 14 -29 5 c-38 7 -99 8 -106 1z"/>
<path d="M1914 5868 c-8 -12 16 -17 64 -15 23 1 43 6 45 12 2 11 -102 14 -109
3z"/>
<path d="M1894 5808 c-3 -4 27 -8 67 -8 40 0 70 3 66 6 -9 9 -128 11 -133 2z"/>
<path d="M1897 5763 c-30 -8 -13 -28 21 -25 23 3 32 -1 32 -11 0 -9 -11 -14
-31 -15 -37 -1 -49 -10 -30 -22 12 -7 34 -7 129 -1 6 1 12 7 12 14 0 9 -11 12
-35 9 -22 -3 -35 0 -35 7 0 14 48 34 61 25 5 -3 9 0 9 5 0 6 -10 11 -22 11
-13 0 -39 2 -58 4 -19 3 -43 2 -53 -1z"/>
<path d="M1883 5639 c-11 -5 -3 -7 24 -7 23 1 40 5 37 9 -5 9 -35 8 -61 -2z"/>
<path d="M1975 5640 c-3 -5 1 -10 10 -10 9 0 13 5 10 10 -3 6 -8 10 -10 10 -2
0 -7 -4 -10 -10z"/>
<path d="M1831 5434 c0 -11 3 -14 6 -6 3 7 2 16 -1 19 -3 4 -6 -2 -5 -13z"/>
<path d="M1865 5299 c-3 -3 14 -9 37 -13 38 -6 58 -2 46 9 -8 9 -79 12 -83 4z"/>
<path d="M1850 5119 c0 -5 5 -7 10 -4 6 3 10 8 10 11 0 2 -4 4 -10 4 -5 0 -10
-5 -10 -11z"/>
<path d="M5946 6711 c-4 -5 3 -7 14 -4 23 6 26 13 6 13 -8 0 -17 -4 -20 -9z"/>
<path d="M5960 6350 c0 -5 7 -7 15 -4 8 4 15 8 15 10 0 2 -7 4 -15 4 -8 0 -15
-4 -15 -10z"/>
<path d="M5817 6338 c-3 -9 -17 -14 -36 -13 -17 1 -31 -2 -31 -7 0 -4 36 -7
79 -6 60 1 85 -3 105 -15 14 -10 26 -21 26 -26 0 -16 26 -7 27 10 1 11 -7 19
-20 22 -17 3 -15 5 8 6 22 1 26 4 16 10 -8 5 -45 8 -83 6 -53 -3 -70 0 -76 12
-8 13 -10 13 -15 1z"/>
<path d="M5748 6293 c12 -2 30 -2 40 0 9 3 -1 5 -23 4 -22 0 -30 -2 -17 -4z"/>
<path d="M5841 6278 c12 -22 21 -24 13 -3 -4 9 0 15 9 15 8 0 17 -6 20 -12 3
-10 7 -10 17 -1 10 9 8 13 -11 17 -45 9 -59 5 -48 -16z"/>
<path d="M6012 5990 c0 -14 2 -19 5 -12 2 6 2 18 0 25 -3 6 -5 1 -5 -13z"/>
<path d="M4035 6770 c3 -5 12 -7 20 -3 21 7 19 13 -6 13 -11 0 -18 -4 -14 -10z"/>
<path d="M3125 6480 c-3 -5 1 -10 10 -10 9 0 13 5 10 10 -3 6 -8 10 -10 10 -2
0 -7 -4 -10 -10z"/>
<path d="M3125 6450 c3 -5 11 -10 16 -10 6 0 7 5 4 10 -3 6 -11 10 -16 10 -6
0 -7 -4 -4 -10z"/>
<path d="M3256 6244 c3 -12 1 -25 -5 -28 -21 -13 -11 -26 19 -26 24 0 33 6 40
26 12 30 -6 54 -38 51 -17 -1 -20 -6 -16 -23z m39 -24 c-5 -8 -11 -8 -17 -2
-6 6 -7 16 -3 22 5 8 11 8 17 2 6 -6 7 -16 3 -22z"/>
<path d="M3028 5853 c7 -3 16 -2 19 1 4 3 -2 6 -13 5 -11 0 -14 -3 -6 -6z"/>
<path d="M3627 5829 c7 -7 15 -10 18 -7 3 3 -2 9 -12 12 -14 6 -15 5 -6 -5z"/>
<path d="M3592 5801 c-11 -7 -11 -9 2 -14 10 -4 16 -1 16 8 0 17 -1 17 -18 6z"/>
<path d="M3446 5791 c-6 -10 110 -8 120 2 4 4 -20 7 -54 7 -33 0 -63 -4 -66
-9z"/>
<path d="M3703 5453 c9 -2 23 -2 30 0 6 3 -1 5 -18 5 -16 0 -22 -2 -12 -5z"/>
<path d="M1170 5420 c0 -15 5 -20 18 -18 9 2 17 10 17 18 0 8 -8 16 -17 18
-13 2 -18 -3 -18 -18z"/>
<path d="M3470 5351 c0 -5 5 -13 10 -16 6 -3 10 -2 10 4 0 5 -4 13 -10 16 -5
3 -10 2 -10 -4z"/>
<path d="M4522 5225 c0 -16 2 -22 5 -12 2 9 2 23 0 30 -3 6 -5 -1 -5 -18z"/>
<path d="M1251 5194 c0 -11 3 -14 6 -6 3 7 2 16 -1 19 -3 4 -6 -2 -5 -13z"/>
<path d="M2657 5073 c-10 -9 -9 -23 1 -23 5 0 9 7 9 15 0 17 -1 18 -10 8z"/>
<path d="M2694 4869 c-2 -4 5 -6 16 -4 11 2 20 1 20 -3 0 -4 10 -8 21 -9 17
-2 19 1 10 10 -13 13 -59 18 -67 6z"/>
<path d="M3093 5232 c-37 -2 -63 -8 -66 -15 -6 -15 62 -20 79 -6 8 7 11 4 10
-8 -1 -14 8 -19 39 -21 22 -2 37 0 33 3 -4 4 -3 17 1 29 10 24 12 23 -96 18z"/>
<path d="M4120 5100 c0 -5 5 -10 10 -10 6 0 10 5 10 10 0 6 -4 10 -10 10 -5 0
-10 -4 -10 -10z"/>
<path d="M6860 7380 c0 -5 5 -10 10 -10 6 0 10 5 10 10 0 6 -4 10 -10 10 -5 0
-10 -4 -10 -10z"/>
<path d="M6890 7382 c0 -9 21 -32 30 -32 3 0 6 9 7 20 1 14 -4 20 -18 20 -10
0 -19 -4 -19 -8z"/>
<path d="M6860 7348 c0 -7 4 -19 9 -27 11 -17 23 1 15 23 -7 19 -24 21 -24 4z"/>
<path d="M7048 6430 c-5 -30 3 -46 16 -33 9 10 7 63 -3 63 -5 0 -11 -14 -13
-30z"/>
<path d="M6771 6368 c-7 -46 -14 -94 -17 -108 -4 -19 -2 -22 6 -10 5 8 10 23
10 32 0 9 8 19 18 21 15 4 15 5 -2 6 -19 1 -19 1 0 23 10 12 13 18 6 14 -10
-6 -11 5 -6 48 10 87 -2 66 -15 -26z"/>
<path d="M7020 6445 c-1 -5 -2 -14 -1 -19 1 -5 -5 -4 -13 4 -14 11 -15 7 -10
-34 5 -31 3 -46 -4 -46 -7 0 -9 7 -5 17 4 10 2 14 -5 9 -6 -3 -10 -15 -9 -26
1 -15 9 -20 29 -20 17 0 28 -5 28 -13 0 -9 -10 -13 -27 -12 -16 1 -21 0 -12
-2 10 -2 20 -14 24 -26 4 -14 8 -17 12 -9 2 6 9 10 14 6 6 -3 7 10 3 33 -3 21
-9 63 -14 93 -4 30 -9 51 -10 45z"/>
<path d="M6811 6404 c0 -11 3 -14 6 -6 3 7 2 16 -1 19 -3 4 -6 -2 -5 -13z"/>
<path d="M6898 6303 c6 -2 18 -2 25 0 6 3 1 5 -13 5 -14 0 -19 -2 -12 -5z"/>
<path d="M7025 6220 c-3 -5 -2 -10 4 -10 5 0 13 5 16 10 3 6 2 10 -4 10 -5 0
-13 -4 -16 -10z"/>
<path d="M7240 5810 c0 -11 4 -20 9 -20 5 0 7 9 4 20 -3 11 -7 20 -9 20 -2 0
-4 -9 -4 -20z"/>
<path d="M7274 5799 c-3 -5 16 -9 41 -9 25 0 44 4 41 9 -3 5 -22 9 -41 9 -19
0 -38 -4 -41 -9z"/>
<path d="M7284 5758 c-3 -4 9 -8 25 -8 34 0 36 -2 19 -29 -14 -23 -4 -51 17
-51 13 0 16 9 13 48 -3 46 -4 47 -36 47 -19 1 -36 -3 -38 -7z m66 -68 c0 -5
-5 -10 -11 -10 -5 0 -7 5 -4 10 3 6 8 10 11 10 2 0 4 -4 4 -10z"/>
<path d="M7326 5631 c-13 -15 -14 -20 -4 -24 11 -4 10 -7 -1 -15 -7 -5 -11
-14 -7 -20 3 -5 -1 -12 -9 -16 -18 -6 -32 14 -16 24 9 5 8 10 -3 19 -10 8 -16
9 -21 1 -3 -5 -21 -10 -38 -10 -23 0 -28 -3 -18 -9 8 -5 20 -7 28 -4 7 3 13 0
13 -7 0 -6 5 -8 11 -4 8 4 8 0 0 -15 -10 -17 -9 -20 4 -15 8 4 15 2 15 -4 0
-6 -6 -13 -12 -15 -7 -3 12 -5 42 -6 38 0 49 3 35 8 -11 5 -28 7 -38 5 -11 -2
-17 2 -14 9 4 14 47 19 47 6 0 -5 5 -9 10 -9 6 0 10 7 10 15 0 8 -6 15 -12 15
-9 0 -9 3 1 9 12 8 12 12 -2 26 -21 20 -22 35 -2 35 8 0 15 5 15 10 0 16 -15
12 -34 -9z"/>
<path d="M490 5630 c0 -5 7 -7 15 -4 8 4 15 8 15 10 0 2 -7 4 -15 4 -8 0 -15
-4 -15 -10z"/>
<path d="M7110 5625 c0 -8 6 -15 13 -15 8 0 14 7 14 15 0 8 -6 15 -14 15 -7 0
-13 -7 -13 -15z"/>
<path d="M483 5570 c-30 -12 -29 -18 2 -12 14 2 25 8 25 13 0 5 -1 9 -2 8 -2
0 -13 -4 -25 -9z"/>
<path d="M7133 5543 c-4 -10 -11 -21 -16 -24 -5 -4 4 -6 19 -6 16 0 23 2 17 4
-7 3 -13 11 -13 18 0 7 6 16 13 18 9 4 9 6 -1 6 -7 1 -16 -7 -19 -16z"/>
<path d="M7210 5551 c0 -6 5 -13 12 -17 6 -4 8 -3 4 4 -3 5 0 13 6 15 8 3 6 6
-4 6 -10 1 -18 -3 -18 -8z"/>
<path d="M456 5521 c-4 -5 5 -8 19 -6 35 3 44 15 12 15 -14 0 -28 -4 -31 -9z"/>
<path d="M7200 5509 c0 -5 5 -7 10 -4 6 3 10 -1 10 -10 0 -9 -4 -13 -10 -10
-5 3 -10 2 -10 -4 0 -14 18 -23 24 -13 3 5 16 7 30 5 13 -3 27 1 31 8 6 9 2
11 -12 7 -12 -3 -27 -2 -34 3 -12 8 -11 11 1 19 12 8 9 10 -12 10 -16 0 -28
-5 -28 -11z"/>
<path d="M450 5496 c0 -2 9 -6 20 -9 11 -3 18 -1 14 4 -5 9 -34 13 -34 5z"/>
<path d="M7323 5479 c14 -8 22 -8 30 0 8 8 3 11 -18 11 -26 -1 -28 -2 -12 -11z"/>
<path d="M478 5458 c5 -5 16 -8 23 -6 8 3 3 7 -10 11 -17 4 -21 3 -13 -5z"/>
<path d="M7310 5459 c0 -5 -4 -7 -10 -4 -5 3 -10 1 -10 -4 0 -6 6 -11 13 -11
17 0 18 -30 3 -49 -8 -11 -8 -13 2 -7 8 5 12 -1 12 -19 0 -18 -4 -24 -12 -19
-10 6 -10 5 -1 -8 7 -8 10 -18 6 -21 -9 -9 19 -8 32 1 15 10 12 85 -3 95 -11
7 -10 12 5 23 17 13 17 13 -5 14 -13 0 -20 4 -17 10 3 6 1 10 -4 10 -6 0 -11
-5 -11 -11z"/>
<path d="M478 5423 c7 -3 16 -2 19 1 4 3 -2 6 -13 5 -11 0 -14 -3 -6 -6z"/>
<path d="M7210 5410 c-23 -8 -23 -8 7 -7 17 1 29 5 27 9 -3 4 -6 8 -7 7 -1 -1
-13 -5 -27 -9z"/>
<path d="M469 5387 c7 -7 14 -8 21 -1 6 6 2 10 -12 11 -16 2 -18 -1 -9 -10z"/>
<path d="M571 5384 c0 -11 3 -14 6 -6 3 7 2 16 -1 19 -3 4 -6 -2 -5 -13z"/>
<path d="M460 5360 c0 -5 7 -10 15 -10 8 0 15 5 15 10 0 6 -7 10 -15 10 -8 0
-15 -4 -15 -10z"/>
<path d="M455 5330 c-3 -5 1 -10 10 -10 9 0 13 5 10 10 -3 6 -8 10 -10 10 -2
0 -7 -4 -10 -10z"/>
<path d="M7193 5333 c9 -2 25 -2 35 0 9 3 1 5 -18 5 -19 0 -27 -2 -17 -5z"/>
<path d="M7130 5311 c0 -6 4 -13 10 -16 6 -3 7 1 4 9 -7 18 -14 21 -14 7z"/>
<path d="M7195 5300 c3 -5 8 -10 11 -10 2 0 4 5 4 10 0 6 -5 10 -11 10 -5 0
-7 -4 -4 -10z"/>
<path d="M7228 5303 c6 -2 18 -2 25 0 6 3 1 5 -13 5 -14 0 -19 -2 -12 -5z"/>
<path d="M7225 5270 c-3 -6 1 -7 9 -4 18 7 21 14 7 14 -6 0 -13 -4 -16 -10z"/>
<path d="M250 4669 c0 -5 5 -7 10 -4 6 3 10 8 10 11 0 2 -4 4 -10 4 -5 0 -10
-5 -10 -11z"/>
<path d="M487 4538 c-8 -55 8 -54 19 0 4 19 2 32 -4 32 -5 0 -12 -15 -15 -32z"/>
<path d="M471 4375 c-56 -61 -52 -71 6 -13 26 26 45 50 41 53 -3 3 -24 -15
-47 -40z"/>
<path d="M397 4303 c-4 -3 -7 -11 -7 -17 0 -6 5 -5 12 2 6 6 9 14 7 17 -3 3
-9 2 -12 -2z"/>
</g>
</svg>
